<svg xmlns="http://www.w3.org/2000/svg" width="30" height="30" viewBox="0 0 30 30">
  <g id="Groupe_8494" data-name="Groupe 8494" transform="translate(0.047 -0.281)">
    <rect id="Rectangle_5953" data-name="Rectangle 5953" width="30" height="30" transform="translate(-0.047 0.281)" fill="#fff" opacity="0"/>
    <g id="Groupe_7672" data-name="Groupe 7672" transform="translate(10.794 5.023)">
      <path id="Tracé_78" data-name="Tracé 78" d="M100.962-53.079v-4.742a.635.635,0,0,0-.636-.636.635.635,0,0,0-.636.636v4.742a2.476,2.476,0,0,0-1.843,2.386,2.481,2.481,0,0,0,2.479,2.479,2.481,2.481,0,0,0,2.478-2.479A2.477,2.477,0,0,0,100.962-53.079Zm-.636,3.593a1.208,1.208,0,0,1-1.207-1.207,1.208,1.208,0,0,1,1.207-1.207,1.209,1.209,0,0,1,1.206,1.207A1.209,1.209,0,0,1,100.326-49.486Z" transform="translate(-97.847 68.694)" fill="#4c9bd6"/>
      <path id="Tracé_79" data-name="Tracé 79" d="M107.981-56.259a2.473,2.473,0,0,0-2.073,1.13,6.782,6.782,0,0,1-4.967-6.5,2.477,2.477,0,0,0,1.864-2.393,2.481,2.481,0,0,0-2.478-2.479,2.481,2.481,0,0,0-2.479,2.479,2.472,2.472,0,0,0,1.825,2.38c.094,1.6.814,6.361,5.845,7.726,0,.047-.014.092-.014.14a2.481,2.481,0,0,0,2.478,2.478,2.481,2.481,0,0,0,2.48-2.478A2.482,2.482,0,0,0,107.981-56.259Zm-8.862-7.767a1.208,1.208,0,0,1,1.207-1.207,1.209,1.209,0,0,1,1.206,1.207,1.209,1.209,0,0,1-1.206,1.207A1.208,1.208,0,0,1,99.119-64.026Zm8.862,11.452a1.208,1.208,0,0,1-1.206-1.206,1.209,1.209,0,0,1,1.206-1.207,1.209,1.209,0,0,1,1.208,1.207A1.208,1.208,0,0,1,107.981-52.574Z" transform="translate(-97.847 66.505)" fill="#174f7b"/>
    </g>
  </g>
</svg>
