<svg xmlns="http://www.w3.org/2000/svg" viewBox="-2644 -9033.542 27.349 30.084">
  <defs>
    <style>
      .cls-1 {
        fill: #7a8ba5;
      }
    </style>
  </defs>
  <path id="database" class="cls-1" d="M29.769,4.655C29.136,2.308,24.421,0,16.175,0S3.213,2.308,2.58,4.655a.536.536,0,0,0-.08.268V25.161a.514.514,0,0,0,.064.247c.646,2.677,6.425,4.676,13.611,4.676,7.169,0,12.939-1.99,13.606-4.658a.54.54,0,0,0,.068-.265V4.923A.536.536,0,0,0,29.769,4.655ZM28.712,18.589a1.346,1.346,0,0,1-.063.2,1.572,1.572,0,0,1-.078.162,1.855,1.855,0,0,1-.126.2c-.036.051-.077.1-.12.152-.061.072-.125.143-.2.214-.044.043-.093.086-.142.129-.09.078-.183.156-.288.233-.045.033-.093.066-.141.1-.124.085-.253.17-.394.253-.037.022-.077.044-.116.066-.163.092-.333.183-.517.272l-.072.033c-.205.1-.42.192-.649.284l-.02.008A21.2,21.2,0,0,1,21.1,22.081l-.028,0q-.54.08-1.108.142l-.189.018c-.331.034-.666.066-1.01.091-.158.011-.323.017-.483.027-.259.015-.516.032-.782.042-.434.014-.877.022-1.33.022s-.9-.009-1.33-.024c-.266-.009-.522-.027-.782-.042-.16-.009-.325-.015-.483-.027-.345-.025-.679-.057-1.01-.091l-.189-.018q-.569-.062-1.108-.142l-.028,0a21.2,21.2,0,0,1-4.683-1.187l-.02-.008c-.229-.092-.444-.187-.649-.284l-.072-.033c-.184-.089-.354-.179-.517-.272-.038-.022-.079-.043-.116-.066-.142-.083-.271-.168-.394-.253-.047-.033-.1-.065-.141-.1-.1-.077-.2-.155-.288-.233-.049-.043-.1-.085-.142-.129a2.855,2.855,0,0,1-.2-.214c-.043-.05-.084-.1-.12-.152a2.039,2.039,0,0,1-.126-.2,1.692,1.692,0,0,1-.078-.162,1.326,1.326,0,0,1-.063-.2,1.184,1.184,0,0,1-.043-.264,1.168,1.168,0,0,1,.017-.185.545.545,0,0,0-.017-.243V13.835c.015.014.034.028.05.042.119.105.241.209.377.31,2.06,1.558,6.181,2.769,12.153,2.769,5.947,0,10.057-1.2,12.126-2.75a5.568,5.568,0,0,0,.454-.371h0V17.9a.545.545,0,0,0-.017.243,1.107,1.107,0,0,1,.017.185A1.183,1.183,0,0,1,28.712,18.589Zm.043-11.318v4.061a.545.545,0,0,0-.017.243,1.107,1.107,0,0,1,.017.185,1.183,1.183,0,0,1-.043.265,1.346,1.346,0,0,1-.063.2,1.572,1.572,0,0,1-.078.162,1.855,1.855,0,0,1-.126.2c-.036.051-.077.1-.12.152-.061.072-.125.143-.2.214-.044.043-.093.086-.142.129-.09.078-.183.156-.288.233-.045.033-.093.066-.141.1-.124.085-.253.17-.394.253-.037.022-.077.044-.116.066-.163.092-.333.183-.517.272l-.072.033c-.205.1-.42.192-.649.284l-.02.008A21.2,21.2,0,0,1,21.1,15.517l-.028,0q-.54.08-1.108.142l-.189.018c-.331.034-.666.066-1.01.091-.158.011-.323.017-.483.027-.259.015-.516.032-.782.042-.434.014-.877.022-1.33.022s-.9-.009-1.33-.024c-.266-.009-.522-.027-.782-.042-.16-.009-.325-.015-.483-.027-.345-.025-.679-.057-1.01-.091l-.189-.018q-.569-.062-1.108-.142l-.028,0a21.2,21.2,0,0,1-4.683-1.187l-.02-.008c-.229-.092-.444-.187-.649-.284L5.821,14c-.184-.089-.354-.179-.517-.272-.038-.022-.079-.043-.116-.066-.142-.083-.271-.168-.394-.253-.047-.033-.1-.065-.141-.1-.1-.077-.2-.155-.288-.233-.049-.043-.1-.085-.142-.129a2.855,2.855,0,0,1-.2-.214c-.043-.05-.084-.1-.12-.152a2.04,2.04,0,0,1-.126-.2,1.692,1.692,0,0,1-.078-.162,1.326,1.326,0,0,1-.063-.2,1.184,1.184,0,0,1-.043-.264,1.168,1.168,0,0,1,.017-.185.545.545,0,0,0-.017-.243V7.271c.066.06.141.118.212.177.039.033.076.066.118.1.164.129.341.257.533.381.04.026.085.051.126.077q.241.15.51.294l.2.106q.3.153.63.3c.036.016.069.032.106.048.257.109.529.213.812.313.078.028.16.054.241.082q.338.114.7.219c.087.025.172.051.261.075.32.089.65.173,1,.251.048.011.1.02.147.03.306.067.623.129.949.187l.335.057q.465.076.957.14c.084.011.165.024.25.034.407.049.828.091,1.261.127.107.009.218.015.326.023q.519.038,1.062.062l.4.017c.471.016.952.027,1.45.027s.978-.011,1.45-.027l.4-.017q.543-.025,1.062-.062c.108-.008.219-.014.326-.023.433-.036.854-.078,1.261-.127.085-.01.166-.023.25-.034q.491-.064.957-.14l.335-.057c.326-.058.643-.12.949-.187l.147-.03c.347-.078.677-.162,1-.251.089-.025.174-.05.261-.075q.362-.106.7-.219c.08-.027.162-.054.241-.082.283-.1.556-.2.812-.313.037-.015.069-.032.106-.048q.331-.144.63-.3c.068-.035.135-.07.2-.106q.268-.144.51-.294c.042-.026.086-.051.126-.077.192-.124.369-.251.533-.381.041-.033.078-.066.118-.1C28.615,7.389,28.69,7.331,28.755,7.271ZM16.175,1.094c7.414,0,12.581,2.162,12.581,4.1S23.589,9.3,16.175,9.3,3.594,7.137,3.594,5.2,8.76,1.094,16.175,1.094ZM28.755,25a.558.558,0,0,0-.018.074c-.31,1.892-5.433,3.917-12.563,3.917S3.922,26.965,3.611,25.073A.6.6,0,0,0,3.594,25V20.4c.015.014.034.028.05.042.119.105.241.209.377.31,2.06,1.558,6.181,2.769,12.153,2.769,5.947,0,10.057-1.2,12.126-2.75a5.569,5.569,0,0,0,.454-.371h0Z" transform="translate(-2646.5 -9033.542)"/>
</svg>
