<svg xmlns="http://www.w3.org/2000/svg" viewBox="-3191.541 -9033.542 30.039 30.038">
  <defs>
    <style>
      .cls-1 {
        fill: #36acea;
      }
    </style>
  </defs>
  <path id="Tracé_9585" data-name="Tracé 9585" class="cls-1" d="M28,18.663l-3.383-2.12a1.074,1.074,0,0,1-.56-.943V14.227a7.668,7.668,0,0,0,1.824-3.147A1.786,1.786,0,0,0,26.534,9.7V7.967a1.745,1.745,0,0,0-.5-1.167V4.48c0-.045-.3-4.478-5.506-4.478A6.663,6.663,0,0,0,18,.459,8.739,8.739,0,0,0,15.019,0a8.739,8.739,0,0,0-2.979.457A6.664,6.664,0,0,0,9.512,0c-5.2,0-5.5,4.434-5.507,4.506V6.8a1.744,1.744,0,0,0-.5,1.167V9.7a1.788,1.788,0,0,0,.656,1.384,7.667,7.667,0,0,0,1.824,3.147V15.6a1.089,1.089,0,0,1-.586.959l-3.33,2.089A3.966,3.966,0,0,0,0,22.132v1.4a.5.5,0,0,0,.5.5H4A4.512,4.512,0,0,0,3.5,26.088V29.54a.5.5,0,0,0,.5.5H26.034a.5.5,0,0,0,.5-.5V26.088a4.512,4.512,0,0,0-.495-2.056h3.5a.5.5,0,0,0,.5-.5v-1.4A3.952,3.952,0,0,0,28,18.663ZM1,23.031v-.9a2.981,2.981,0,0,1,1.573-2.62L5.9,17.423A2.075,2.075,0,0,0,6.986,15.6V14.02a.5.5,0,0,0-.158-.365,6.724,6.724,0,0,1-1.737-2.982.5.5,0,0,0-.216-.308A.8.8,0,0,1,4.506,9.7V7.967a.874.874,0,0,1,.336-.587.5.5,0,0,0,.165-.371V4.537C5.015,4.393,5.275,1,9.512,1a6.426,6.426,0,0,1,1.262.117,4.309,4.309,0,0,0-.715.649A4.487,4.487,0,0,0,9.012,5.036V7.7a1.993,1.993,0,0,0-.5,1.314v2a1.992,1.992,0,0,0,.749,1.556A10.52,10.52,0,0,0,11.014,16.2v2.33a1.321,1.321,0,0,1-.689,1.161L5.858,22.124a4.512,4.512,0,0,0-1.161.908H1Zm24.532,6.008H4.506V26.088a3.513,3.513,0,0,1,.766-2.19.5.5,0,0,0,.082-.1,3.514,3.514,0,0,1,.983-.8L10.8,20.566a2.323,2.323,0,0,0,1.212-2.041v-2.5A.505.505,0,0,0,11.9,15.7a9.507,9.507,0,0,1-1.708-3.538.5.5,0,0,0-.216-.308,1,1,0,0,1-.464-.84v-2a.986.986,0,0,1,.335-.738.5.5,0,0,0,.165-.372v-2.9a.484.484,0,0,0,0-.066,3.472,3.472,0,0,1,.8-2.513,3.635,3.635,0,0,1,1.351-.943.5.5,0,0,0,.115-.047A7.582,7.582,0,0,1,15.019,1a7.583,7.583,0,0,1,2.741.436.5.5,0,0,0,.117.047,3.641,3.641,0,0,1,1.341.933,3.52,3.52,0,0,1,.813,2.523.483.483,0,0,0,0,.066V7.9a.5.5,0,0,0,.165.372.986.986,0,0,1,.335.738v2a1,1,0,0,1-.464.84.5.5,0,0,0-.216.308A9.508,9.508,0,0,1,18.139,15.7a.505.505,0,0,0-.116.321v2.5a2.323,2.323,0,0,0,1.212,2.041L23.7,23a3.516,3.516,0,0,1,.983.8.5.5,0,0,0,.082.1,3.513,3.513,0,0,1,.766,2.19v2.951Zm3.5-6.008h-3.7a4.512,4.512,0,0,0-1.161-.908h0l-4.467-2.437a1.321,1.321,0,0,1-.689-1.161V16.2a10.52,10.52,0,0,0,1.754-3.624,1.992,1.992,0,0,0,.749-1.556v-2a1.993,1.993,0,0,0-.5-1.314V5.036A4.487,4.487,0,0,0,19.98,1.769a4.311,4.311,0,0,0-.715-.649A6.427,6.427,0,0,1,20.527,1c4.237,0,4.5,3.389,4.506,3.5v2.5a.5.5,0,0,0,.165.371.872.872,0,0,1,.336.587V9.7a.794.794,0,0,1-.368.667.5.5,0,0,0-.217.308,6.714,6.714,0,0,1-1.737,2.982.5.5,0,0,0-.158.365V15.6a2.061,2.061,0,0,0,1.055,1.807l3.383,2.12a2.966,2.966,0,0,1,1.546,2.6v.9Z" transform="translate(-3191.541 -9033.544)"/>
</svg>
