<?xml version="1.0" encoding="utf-8"?>
<!-- Generator: Adobe Illustrator 22.0.1, SVG Export Plug-In . SVG Version: 6.00 Build 0)  -->
<svg version="1.1" id="Calque_1" xmlns="http://www.w3.org/2000/svg" xmlns:xlink="http://www.w3.org/1999/xlink" x="0px" y="0px"
	 viewBox="0 0 25.5 31.8" style="enable-background:new 0 0 25.5 31.8;" xml:space="preserve">
<style type="text/css">
	.st0{fill:#C9232C;}
</style>
<g id="Groupe_1875" transform="translate(-3645.323 -9244.285)">
	<path id="Tracé_9952" class="st0" d="M3654.3,9250.6c-0.4,0-0.7,0.3-0.7,0.7v0.9c0,0.4,0.3,0.7,0.7,0.7c0.4,0,0.7-0.3,0.7-0.7
		v-0.9C3654.9,9250.9,3654.6,9250.6,3654.3,9250.6z"/>
	<path id="Tracé_9953" class="st0" d="M3656.9,9252.9c0.4,0,0.7-0.3,0.7-0.7v-0.9c0-0.4-0.3-0.7-0.7-0.7c-0.4,0-0.7,0.3-0.7,0.7
		l0,0v0.9C3656.2,9252.6,3656.5,9252.9,3656.9,9252.9z"/>
	<path id="Tracé_9954" class="st0" d="M3659.5,9252.9c0.4,0,0.7-0.3,0.7-0.7v-0.9c0-0.4-0.3-0.7-0.7-0.7s-0.7,0.3-0.7,0.7l0,0v0.9
		C3658.8,9252.6,3659.1,9252.9,3659.5,9252.9z"/>
	<path id="Tracé_9955" class="st0" d="M3662.1,9252.9c0.4,0,0.7-0.3,0.7-0.7v-0.9c0-0.4-0.3-0.7-0.7-0.7s-0.7,0.3-0.7,0.7v0.9
		C3661.4,9252.6,3661.7,9252.9,3662.1,9252.9z"/>
	<path id="Tracé_9956" class="st0" d="M3654.3,9253.9c-0.4,0-0.7,0.3-0.7,0.7v0.9c0,0.4,0.3,0.7,0.7,0.7c0.4,0,0.7-0.3,0.7-0.7
		v-0.9C3654.9,9254.2,3654.7,9253.9,3654.3,9253.9C3654.3,9253.9,3654.3,9253.9,3654.3,9253.9z"/>
	<path id="Tracé_9957" class="st0" d="M3656.9,9256.1c0.4,0,0.7-0.3,0.7-0.7v-0.9c0-0.4-0.3-0.7-0.7-0.7c-0.4,0-0.7,0.3-0.7,0.7
		l0,0v0.9C3656.2,9255.8,3656.5,9256.1,3656.9,9256.1z"/>
	<path id="Tracé_9958" class="st0" d="M3659.5,9256.1c0.4,0,0.7-0.3,0.7-0.7v-0.9c0-0.4-0.3-0.7-0.7-0.7s-0.7,0.3-0.7,0.7l0,0v0.9
		C3658.8,9255.8,3659.1,9256.1,3659.5,9256.1z"/>
	<path id="Tracé_9959" class="st0" d="M3662.1,9256.1c0.4,0,0.7-0.3,0.7-0.7v-0.9c0-0.4-0.3-0.7-0.7-0.7s-0.7,0.3-0.7,0.7v0.9
		C3661.4,9255.8,3661.7,9256.1,3662.1,9256.1z"/>
	<path id="Tracé_9960" class="st0" d="M3654.3,9257.1c-0.4,0-0.7,0.3-0.7,0.7v0.9c0,0.4,0.3,0.7,0.7,0.7c0.4,0,0.7-0.3,0.7-0.7
		v-0.9C3654.9,9257.4,3654.6,9257.1,3654.3,9257.1z"/>
	<path id="Tracé_9961" class="st0" d="M3656.9,9259.3c0.4,0,0.7-0.3,0.7-0.7v-0.9c0-0.4-0.3-0.7-0.7-0.7c-0.4,0-0.7,0.3-0.7,0.7
		l0,0v0.9C3656.2,9259.1,3656.5,9259.3,3656.9,9259.3z"/>
	<path id="Tracé_9962" class="st0" d="M3659.5,9259.3c0.4,0,0.7-0.3,0.7-0.7v-0.9c0-0.4-0.3-0.7-0.7-0.7s-0.7,0.3-0.7,0.7l0,0v0.9
		C3658.8,9259.1,3659.1,9259.3,3659.5,9259.3z"/>
	<path id="Tracé_9963" class="st0" d="M3662.1,9259.3c0.4,0,0.7-0.3,0.7-0.7v-0.9c0-0.4-0.3-0.7-0.7-0.7s-0.7,0.3-0.7,0.7v0.9
		C3661.4,9259.1,3661.7,9259.3,3662.1,9259.3z"/>
	<path id="Tracé_9964" class="st0" d="M3654.3,9260.3c-0.4,0-0.7,0.3-0.7,0.7v0.9c0,0.4,0.3,0.7,0.7,0.7c0.4,0,0.7-0.3,0.7-0.7l0,0
		v-0.9C3654.9,9260.6,3654.6,9260.3,3654.3,9260.3z"/>
	<path id="Tracé_9965" class="st0" d="M3656.9,9262.6c0.4,0,0.7-0.3,0.7-0.7v-0.9c0-0.4-0.3-0.7-0.7-0.7c-0.4,0-0.7,0.3-0.7,0.7
		v0.9C3656.2,9262.3,3656.5,9262.6,3656.9,9262.6C3656.9,9262.6,3656.9,9262.6,3656.9,9262.6z"/>
	<path id="Tracé_9966" class="st0" d="M3659.5,9262.6c0.4,0,0.7-0.3,0.7-0.7v-0.9c0-0.4-0.3-0.7-0.7-0.7s-0.7,0.3-0.7,0.7v0.9
		C3658.8,9262.3,3659.1,9262.6,3659.5,9262.6C3659.5,9262.6,3659.5,9262.6,3659.5,9262.6z"/>
	<path id="Tracé_9967" class="st0" d="M3662.1,9262.6c0.4,0,0.7-0.3,0.7-0.7v-0.9c0-0.4-0.3-0.7-0.7-0.7s-0.7,0.3-0.7,0.7v0.9
		C3661.4,9262.3,3661.7,9262.6,3662.1,9262.6C3662.1,9262.6,3662.1,9262.6,3662.1,9262.6z"/>
	<path id="Tracé_9968" class="st0" d="M3654.3,9263.6c-0.4,0-0.7,0.3-0.7,0.7v0.9c0,0.4,0.3,0.7,0.7,0.7c0.4,0,0.7-0.3,0.7-0.7
		v-0.9C3654.9,9263.9,3654.6,9263.6,3654.3,9263.6z"/>
	<path id="Tracé_9969" class="st0" d="M3656.9,9265.8c0.4,0,0.7-0.3,0.7-0.7v-0.9c0-0.4-0.3-0.7-0.7-0.7c-0.4,0-0.7,0.3-0.7,0.7
		v0.9C3656.2,9265.5,3656.5,9265.8,3656.9,9265.8z"/>
	<path id="Tracé_9970" class="st0" d="M3659.5,9265.8c0.4,0,0.7-0.3,0.7-0.7v-0.9c0-0.4-0.3-0.7-0.7-0.7s-0.7,0.3-0.7,0.7v0.9
		C3658.8,9265.5,3659.1,9265.8,3659.5,9265.8z"/>
	<path id="Tracé_9971" class="st0" d="M3662.1,9265.8c0.4,0,0.7-0.3,0.7-0.7v-0.9c0-0.4-0.3-0.7-0.7-0.7s-0.7,0.3-0.7,0.7v0.9
		C3661.4,9265.5,3661.7,9265.8,3662.1,9265.8z"/>
	<path id="Tracé_9972" class="st0" d="M3670.2,9274.8h-3.8v-27.8c0-0.4-0.3-0.7-0.7-0.7h-1.4v-1.3c0-0.4-0.3-0.7-0.7-0.7h-11
		c-0.4,0-0.7,0.3-0.7,0.7v1.3h-1.4c-0.4,0-0.7,0.3-0.7,0.7v27.9h-4c-0.3,0-0.6,0.3-0.6,0.6v0c0,0.3,0.3,0.6,0.6,0.6h24.3
		c0.3,0,0.6-0.3,0.6-0.6v0C3670.9,9275.1,3670.6,9274.8,3670.2,9274.8C3670.3,9274.8,3670.2,9274.8,3670.2,9274.8z M3653.3,9245.6
		h9.7v0.7h-9.7V9245.6z M3651.2,9247.6h13.9v27.2h-4.6v-5.1c0-0.4-0.3-0.7-0.7-0.7h-3.3c-0.4,0-0.7,0.3-0.7,0.7v5.1h-4.6V9247.6z
		 M3657.1,9274.8v-4.5h2v4.5L3657.1,9274.8z"/>
</g>
</svg>
