<svg xmlns="http://www.w3.org/2000/svg" width="30" height="30" viewBox="0 0 30 30">
  <g id="Groupe_8493" data-name="Groupe 8493" transform="translate(-0.281 -0.281)">
    <rect id="Rectangle_5953" data-name="Rectangle 5953" width="30" height="30" transform="translate(0.281 0.281)" fill="#fff" opacity="0"/>
    <g id="Groupe_7655" data-name="Groupe 7655" transform="translate(3.739 6.901)">
      <g id="Groupe_7654" data-name="Groupe 7654" transform="translate(0 2.462)">
        <path id="Tracé_11" data-name="Tracé 11" d="M5.1,13.215,9.787,8.623a.763.763,0,1,0-1.068-1.09L3.479,12.666a.768.768,0,0,0,0,1.089l5.241,5.169A.763.763,0,1,0,9.789,17.84Z" transform="translate(-3.251 -7.314)" fill="#4c9bd6"/>
        <path id="Tracé_12" data-name="Tracé 12" d="M21.789,12.7,16.55,7.534a.764.764,0,0,0-1.074,1.088l4.689,4.625-4.686,4.591a.763.763,0,0,0,.534,1.308.757.757,0,0,0,.534-.218l5.239-5.134a.765.765,0,0,0,0-1.089Z" transform="translate(0.013 -7.314)" fill="#4c9bd6"/>
      </g>
      <path id="Tracé_13" data-name="Tracé 13" d="M11.148,22.24a.66.66,0,0,1-.131-.011.763.763,0,0,1-.623-.88L13.031,6.013a.764.764,0,0,1,1.506.259L11.9,21.606A.765.765,0,0,1,11.148,22.24Z" transform="translate(-1.311 -5.378)" fill="#174f7b"/>
    </g>
  </g>
</svg>
