<?xml version="1.0" encoding="utf-8"?>
<!-- Generator: Adobe Illustrator 22.0.1, SVG Export Plug-In . SVG Version: 6.00 Build 0)  -->
<svg version="1.1" id="Calque_1" xmlns="http://www.w3.org/2000/svg" xmlns:xlink="http://www.w3.org/1999/xlink" x="0px" y="0px"
	 viewBox="0 0 34.4 34.4" style="enable-background:new 0 0 34.4 34.4;" xml:space="preserve">
<style type="text/css">
	.st0{fill:#22C626;}
</style>
<g id="_002-share" transform="translate(-192.219 -15993.992)">
	<path id="Tracé_3213" class="st0" d="M224.4,16016.4c1.5-6.4-1.3-13.1-6.9-16.6c-0.3-0.2-0.6-0.1-0.8,0.2
		c-0.2,0.3-0.1,0.6,0.2,0.8c0,0,0,0,0,0c5.2,3.2,7.8,9.3,6.4,15.2c-2.2-0.5-4.4,1-4.9,3.2c-0.5,2.2,1,4.4,3.2,4.9s4.4-1,4.9-3.2
		C226.9,16019.1,226,16017.3,224.4,16016.4L224.4,16016.4z M222.4,16023c-1.6,0-3-1.3-3-3s1.3-3,3-3c1.6,0,3,1.3,3,3
		C225.4,16021.7,224.1,16023,222.4,16023z"/>
	<path id="Tracé_3214" class="st0" d="M214.8,16026.1c-5.3,2.2-11.5,1-15.5-3.1c1.6-1.6,1.6-4.3,0-5.9s-4.3-1.6-5.9,0
		s-1.6,4.3,0,5.9c1.3,1.3,3.3,1.6,4.9,0.7c4.4,4.5,11.1,5.9,16.9,3.5c0.3-0.1,0.4-0.5,0.3-0.8
		C215.5,16026.1,215.1,16026,214.8,16026.1L214.8,16026.1L214.8,16026.1z M193.4,16020.1c0-1.6,1.3-3,3-3c1.6,0,3,1.3,3,3
		c0,1.6-1.3,3-3,3C194.7,16023,193.4,16021.7,193.4,16020.1z"/>
	<path id="Tracé_3215" class="st0" d="M194.6,16012.5L194.6,16012.5c0.4,0,0.6-0.2,0.6-0.6c0.4-5.9,4.5-11,10.2-12.6
		c0.6,2.2,3,3.4,5.1,2.8c2.2-0.6,3.4-3,2.8-5.1s-3-3.4-5.1-2.8c-1.8,0.5-3,2.1-3,4c-6.3,1.7-10.8,7.2-11.2,13.7
		C194,16012.2,194.3,16012.5,194.6,16012.5C194.6,16012.5,194.6,16012.5,194.6,16012.5z M209.4,15995.2c1.6,0,3,1.3,3,3
		c0,1.6-1.3,3-3,3c-1.6,0-3-1.3-3-3l0,0C206.4,15996.5,207.8,15995.2,209.4,15995.2z"/>
</g>
</svg>
