<svg xmlns="http://www.w3.org/2000/svg" width="31" height="30" viewBox="0 0 31 30">
  <g id="Groupe_8531" data-name="Groupe 8531" transform="translate(-158 -662)">
    <rect id="Rectangle_11966" data-name="Rectangle 11966" width="31" height="30" transform="translate(158 662)" fill="#174f7b" opacity="0"/>
    <g id="portfolio" transform="translate(160 663.222)">
      <path id="Tracé_13710" data-name="Tracé 13710" d="M14.159,10.111a1.5,1.5,0,0,0,1.5-1.5V5.467A1.5,1.5,0,0,0,14.159,4H11.006A1.516,1.516,0,0,0,9.49,5.467V8.632a1.516,1.516,0,0,0,1.516,1.479h.966v7.333h-.966a1.516,1.516,0,0,0-1.516,1.5V22.1a1.516,1.516,0,0,0,1.516,1.454h3.153a1.5,1.5,0,0,0,1.5-1.5V18.9a1.5,1.5,0,0,0-1.5-1.454h-.966V10.111Zm.281,8.763v3.153a.281.281,0,0,1-.281.281H11.006a.281.281,0,0,1-.293-.281V18.9a.281.281,0,0,1,.293-.281h3.153a.281.281,0,0,1,.281.281ZM10.773,8.608V5.467a.293.293,0,0,1,.232-.244h3.153a.281.281,0,0,1,.281.281V8.632a.281.281,0,0,1-.281.281H11.006a.293.293,0,0,1-.293-.281Z" transform="translate(1.442 0)" fill="#4c9bd6"/>
      <path id="Tracé_13711" data-name="Tracé 13711" d="M21.151,15.889h-.929V12.332A1.3,1.3,0,0,0,18.927,11H14.111a.611.611,0,0,0,0,1.222L19,12.3v3.593H18a1.5,1.5,0,0,0-1.442,1.454V20.5A1.5,1.5,0,0,0,18,22h3.153a1.5,1.5,0,0,0,1.516-1.5V17.343A1.5,1.5,0,0,0,21.151,15.889Zm.293,4.608a.281.281,0,0,1-.281.281H18a.281.281,0,0,1-.281-.281V17.343A.281.281,0,0,1,18,17.062h3.153a.281.281,0,0,1,.281.281Z" transform="translate(2.333 1.556)" fill="#174f7b"/>
      <path id="Tracé_13712" data-name="Tracé 13712" d="M11.556,11H6.74a1.283,1.283,0,0,0-1.3,1.332v3.557H4.5A1.516,1.516,0,0,0,3,17.343V20.5A1.516,1.516,0,0,0,4.5,22H7.669a1.5,1.5,0,0,0,1.5-1.5V17.343a1.5,1.5,0,0,0-1.5-1.454h-1l.073-3.667h4.816a.611.611,0,1,0,0-1.222ZM7.95,17.343V20.5a.281.281,0,0,1-.281.281H4.5a.281.281,0,0,1-.281-.281V17.343a.281.281,0,0,1,.281-.232H7.669a.281.281,0,0,1,.281.232Z" transform="translate(0 1.556)" fill="#174f7b"/>
    </g>
  </g>
</svg>
