<svg xmlns="http://www.w3.org/2000/svg" width="30" height="30" viewBox="0 0 30 30">
  <g id="Groupe_8492" data-name="Groupe 8492" transform="translate(0.219 -0.281)">
    <rect id="Rectangle_5953" data-name="Rectangle 5953" width="30" height="30" transform="translate(-0.219 0.281)" fill="#174f7b" opacity="0"/>
    <g id="Groupe_8015" data-name="Groupe 8015" transform="translate(4.231 3.13)">
      <g id="shield" transform="translate(0 0)">
        <path id="Tracé_13120" data-name="Tracé 13120" d="M55.721-61.523v-.018c-.01-.224-.018-.459-.022-.722a2.464,2.464,0,0,0-2.323-2.414A9.563,9.563,0,0,1,46.87-67.42l-.014-.014a1.487,1.487,0,0,0-2.022,0l-.015.014a9.561,9.561,0,0,1-6.509,2.742,2.463,2.463,0,0,0-2.319,2.414c-.005.261-.011.5-.022.722v.042c-.052,2.725-.116,6.118,1.019,9.2A11.693,11.693,0,0,0,39.8-47.927a14.684,14.684,0,0,0,5.5,3.251,1.967,1.967,0,0,0,.225.062,1.664,1.664,0,0,0,.654,0,1.7,1.7,0,0,0,.226-.062,14.7,14.7,0,0,0,5.491-3.253A11.708,11.708,0,0,0,54.7-52.3C55.836-55.393,55.773-58.792,55.721-61.523Zm-2.3,8.746c-1.2,3.244-3.639,5.472-7.469,6.813a.271.271,0,0,1-.043.011.315.315,0,0,1-.12,0,.24.24,0,0,1-.043-.011c-3.834-1.336-6.279-3.564-7.474-6.809-1.047-2.838-.987-5.953-.935-8.7v-.015c.011-.235.018-.483.022-.756a1.1,1.1,0,0,1,1.033-1.071,11.973,11.973,0,0,0,4.063-.894,10.606,10.606,0,0,0,3.31-2.223.127.127,0,0,1,.169,0A10.626,10.626,0,0,0,49.24-64.21a11.959,11.959,0,0,0,4.063.894,1.1,1.1,0,0,1,1.033,1.072c0,.27.011.52.022.754C54.409-58.737,54.467-55.621,53.417-52.777Z" transform="translate(-35.946 67.831)" fill="#4c9bd6"/>
        <path id="Tracé_13121" data-name="Tracé 13121" d="M44.966-63.247a5.793,5.793,0,0,0-5.794,5.794,5.793,5.793,0,0,0,5.794,5.794,5.793,5.793,0,0,0,5.794-5.794A5.8,5.8,0,0,0,44.966-63.247Zm0,10.224a4.431,4.431,0,0,1-4.43-4.43,4.43,4.43,0,0,1,4.429-4.43,4.43,4.43,0,0,1,4.43,4.429h0A4.435,4.435,0,0,1,44.966-53.023Z" transform="translate(-35.068 69.078)" fill="#174f7b"/>
        <path id="Tracé_13122" data-name="Tracé 13122" d="M46.02-60.066l-2.692,2.692-.73-.731a.683.683,0,0,0-.964-.022.682.682,0,0,0-.022.965l.022.022,1.216,1.216a.683.683,0,0,0,.964,0L46.991-59.1a.683.683,0,0,0-.022-.964.684.684,0,0,0-.944,0Z" transform="translate(-34.456 69.892)" fill="#174f7b"/>
      </g>
    </g>
  </g>
</svg>
