<?xml version="1.0" encoding="utf-8"?>
<!-- Generator: Adobe Illustrator 23.1.1, SVG Export Plug-In . SVG Version: 6.00 Build 0)  -->
<svg version="1.1" id="Calque_1" xmlns="http://www.w3.org/2000/svg" xmlns:xlink="http://www.w3.org/1999/xlink" x="0px" y="0px"
	 viewBox="0 0 240 60" style="enable-background:new 0 0 240 60;" xml:space="preserve">
<style type="text/css">
	.st0{fill:#F3702A;}
	.st1{fill:#1A161A;}
</style>
<path class="st0" d="M231.2,30.1c-1.4-1.7-3.2-2.9-5.3-3.6v-0.1c0-6.1-5-11.1-11.1-11.1s-11.1,5-11.1,11.1v0.1
	c-4.5,1.4-7.7,5.6-7.7,10.6c0,6.1,5,11.1,11.1,11.1c2.9,0,5.7-1.2,7.8-3.2c2,2,4.7,3.2,7.8,3.2c6.1,0,11.1-5,11.1-11.1
	C233.7,34.5,232.8,32,231.2,30.1z M222.6,45.4c-4.6,0-8.3-3.7-8.3-8.3c0-0.8-0.6-1.4-1.4-1.4c-0.8,0-1.4,0.6-1.4,1.4
	c0,2.1,0.6,4,1.6,5.7c-1.6,1.7-3.7,2.6-6,2.6c-4.6,0-8.3-3.7-8.3-8.3s3.7-8.3,8.3-8.3c1,0,2,0.2,2.9,0.5c0.3,0.1,0.8,0.3,0.9,0.4
	c0.6,0.5,1.5,0.4,2-0.2s0.4-1.5-0.2-2c-0.6-0.5-1.6-0.9-1.8-1c-1.2-0.4-2.5-0.7-3.8-0.7h-0.5c0.2-4.4,3.8-7.9,8.3-7.9
	c4.6,0,8.3,3.7,8.3,8.3c0,2.7-1.3,5.2-3.5,6.8c-0.6,0.4-0.8,1.3-0.3,1.9c0.3,0.4,0.7,0.6,1.1,0.6c0.3,0,0.6-0.1,0.8-0.3
	c2.1-1.5,3.6-3.7,4.3-6.1c3.2,1.2,5.4,4.3,5.4,7.8C230.9,41.6,227.2,45.4,222.6,45.4L222.6,45.4z"/>
<path class="st1" d="M3.4,40.4c1.1,0.7,3.5,1.5,5.3,1.5c1.9,0,2.7-0.7,2.7-1.7s-0.6-1.5-2.9-2.3c-4.1-1.4-5.7-3.6-5.7-6
	c0-3.7,3.2-6.5,8.1-6.5c2.3,0,4.4,0.5,5.6,1.1l-1.1,4.3c-0.9-0.5-2.6-1.1-4.3-1.1c-1.5,0-2.4,0.6-2.4,1.6c0,0.9,0.8,1.4,3.2,2.3
	c3.8,1.3,5.4,3.2,5.4,6.2c0,3.7-2.9,6.4-8.7,6.4c-2.6,0-4.9-0.6-6.4-1.4C2.2,44.8,3.4,40.4,3.4,40.4z M39.2,35.6
	c0,7.3-5.2,10.7-10.5,10.7c-5.8,0-10.3-3.8-10.3-10.3c0-6.4,4.2-10.6,10.7-10.6C35.1,25.4,39.2,29.6,39.2,35.6z M24.7,35.8
	c0,3.4,1.4,6,4.1,6c2.4,0,4-2.4,4-6c0-3-1.1-6-4-6S24.7,32.9,24.7,35.8z M41.4,32.2c0-2.5-0.1-4.6-0.2-6.4h5.4l0.3,2.7H47
	c0.8-1.3,2.9-3.2,6.2-3.2c4.1,0,7.1,2.7,7.1,8.6v11.8h-6.2V34.8c0-2.6-0.9-4.3-3.1-4.3c-1.7,0-2.7,1.2-3.1,2.3
	c-0.2,0.4-0.2,1-0.2,1.5v11.5h-6.2L41.4,32.2L41.4,32.2z M75,45.8l-0.4-2h-0.1c-1.3,1.6-3.4,2.5-5.7,2.5c-4,0-6.4-2.9-6.4-6.1
	c0-5.2,4.7-7.7,11.7-7.6v-0.3c0-1.1-0.6-2.6-3.6-2.6c-2,0-4.2,0.7-5.5,1.5l-1.1-4c1.4-0.8,4.1-1.8,7.8-1.8c6.7,0,8.8,3.9,8.8,8.6v7
	c0,1.9,0.1,3.8,0.3,4.9H75V45.8z M74.3,36.4c-3.3,0-5.8,0.7-5.8,3.1c0,1.6,1.1,2.4,2.5,2.4c1.5,0,2.8-1,3.2-2.3
	c0.1-0.3,0.1-0.7,0.1-1.1C74.3,38.5,74.3,36.4,74.3,36.4z M83.6,32.4c0-2.9-0.1-4.9-0.2-6.6h5.3l0.2,3.7h0.2c1-2.9,3.5-4.1,5.4-4.1
	c0.6,0,0.9,0,1.3,0.1v5.8c-0.4-0.1-1-0.2-1.7-0.2c-2.3,0-3.8,1.2-4.2,3.1c-0.1,0.4-0.1,0.9-0.1,1.4v10.1h-6.2L83.6,32.4L83.6,32.4z
	 M112.1,45.1c-0.9,0.5-3,1.1-5.7,1.1c-6,0-9.8-4-9.8-10.1s4.2-10.5,10.6-10.5c2.1,0,4,0.5,5,1l-0.8,2.8c-0.9-0.5-2.2-0.9-4.2-0.9
	c-4.5,0-7,3.4-7,7.5c0,4.6,2.9,7.4,6.9,7.4c2,0,3.4-0.5,4.4-1C111.5,42.4,112.1,45.1,112.1,45.1z M114.7,16.8h3.6v29h-3.6V16.8z
	 M140.5,35.8c0,7.3-5.1,10.5-9.8,10.5c-5.3,0-9.5-3.9-9.5-10.2c0-6.6,4.3-10.5,9.8-10.5C136.7,25.6,140.5,29.7,140.5,35.8z
	 M124.9,36c0,4.3,2.5,7.6,6,7.6c3.4,0,6-3.2,6-7.7c0-3.4-1.7-7.6-5.9-7.6C126.7,28.3,124.9,32.2,124.9,36z M160,40.4
	c0,2,0,3.8,0.2,5.4H157l-0.2-3.2h-0.1c-0.9,1.6-3,3.7-6.5,3.7c-3.1,0-6.8-1.7-6.8-8.7V26.1h3.6V37c0,3.8,1.1,6.3,4.4,6.3
	c2.4,0,4.1-1.7,4.7-3.3c0.2-0.5,0.3-1.2,0.3-1.8V26.1h3.6V40.4z M181.4,16.8v23.9c0,1.8,0,3.8,0.2,5.1h-3.2l-0.2-3.4h-0.1
	c-1.1,2.2-3.5,3.9-6.7,3.9c-4.8,0-8.5-4-8.5-10c0-6.6,4-10.6,8.9-10.6c3,0,5.1,1.4,6,3h0.1V16.8H181.4z M177.8,34.1
	c0-0.4,0-1.1-0.2-1.5c-0.5-2.3-2.5-4.2-5.2-4.2c-3.7,0-5.9,3.3-5.9,7.6c0,4,2,7.3,5.8,7.3c2.4,0,4.6-1.6,5.3-4.3
	c0.1-0.5,0.2-1,0.2-1.5L177.8,34.1L177.8,34.1z"/>
</svg>
