<?xml version="1.0" encoding="utf-8"?>
<!-- Generator: Adobe Illustrator 23.1.1, SVG Export Plug-In . SVG Version: 6.00 Build 0)  -->
<svg version="1.1" id="Calque_1" xmlns="http://www.w3.org/2000/svg" xmlns:xlink="http://www.w3.org/1999/xlink" x="0px" y="0px"
	 viewBox="0 0 240 60" style="enable-background:new 0 0 240 60;" xml:space="preserve">
<style type="text/css">
	.st0{clip-path:url(#SVGID_2_);fill:#1B171B;}
	.st1{clip-path:url(#SVGID_4_);fill:#1B171B;}
	.st2{clip-path:url(#SVGID_6_);fill:#1B171B;}
	.st3{clip-path:url(#SVGID_8_);fill:#1B171B;}
	.st4{clip-path:url(#SVGID_10_);fill:#1B171B;}
	.st5{clip-path:url(#SVGID_12_);fill:#1B171B;}
	.st6{clip-path:url(#SVGID_14_);fill:#1B171B;}
	.st7{clip-path:url(#SVGID_16_);fill:#1B171B;}
	.st8{clip-path:url(#SVGID_18_);fill:#1B171B;}
	.st9{clip-path:url(#SVGID_20_);fill:#CB2029;}
	.st10{fill:#CB2029;}
</style>
<g>
	<g>
		<g>
			<defs>
				<rect id="SVGID_1_" x="-8.2" y="0.8" width="161.4" height="58.4"/>
			</defs>
			<clipPath id="SVGID_2_">
				<use xlink:href="#SVGID_1_"  style="overflow:visible;"/>
			</clipPath>
			<path class="st0" d="M2.4,40.5C3.6,41.1,5.9,42,7.7,42c1.9,0,2.6-0.7,2.6-1.7c0-1-0.6-1.5-2.9-2.3c-4.1-1.4-5.7-3.6-5.6-6
				c0-3.7,3.2-6.5,8.1-6.5c2.3,0,4.4,0.5,5.6,1.1L14.4,31c-0.9-0.5-2.6-1.1-4.3-1.1c-1.5,0-2.4,0.6-2.4,1.6c0,0.9,0.8,1.4,3.2,2.3
				c3.8,1.3,5.4,3.2,5.4,6.1c0,3.7-2.9,6.4-8.6,6.4c-2.6,0-4.9-0.6-6.4-1.4L2.4,40.5z"/>
		</g>
		<g>
			<defs>
				<rect id="SVGID_3_" x="-8.2" y="0.8" width="161.4" height="58.4"/>
			</defs>
			<clipPath id="SVGID_4_">
				<use xlink:href="#SVGID_3_"  style="overflow:visible;"/>
			</clipPath>
			<path class="st1" d="M38,35.7c0,7.2-5.1,10.6-10.4,10.6c-5.8,0-10.2-3.8-10.2-10.2s4.2-10.5,10.6-10.5C33.9,25.6,38,29.8,38,35.7
				 M23.7,35.9c0,3.4,1.4,6,4,6c2.4,0,3.9-2.4,3.9-6c0-3-1.1-6-3.9-6C24.8,30,23.7,33,23.7,35.9"/>
		</g>
		<g>
			<defs>
				<rect id="SVGID_5_" x="-8.2" y="0.8" width="161.4" height="58.4"/>
			</defs>
			<clipPath id="SVGID_6_">
				<use xlink:href="#SVGID_5_"  style="overflow:visible;"/>
			</clipPath>
			<path class="st2" d="M40.2,32.4c0-2.5-0.1-4.6-0.2-6.3h5.4l0.3,2.7h0.1c0.8-1.3,2.8-3.2,6.1-3.2c4,0,7.1,2.7,7.1,8.5v11.8h-6.2
				v-11c0-2.6-0.9-4.3-3.1-4.3c-1.7,0-2.7,1.2-3.1,2.3c-0.2,0.4-0.3,1-0.3,1.5v11.4h-6.1L40.2,32.4L40.2,32.4z"/>
		</g>
		<g>
			<defs>
				<rect id="SVGID_7_" x="-8.2" y="0.8" width="161.4" height="58.4"/>
			</defs>
			<clipPath id="SVGID_8_">
				<use xlink:href="#SVGID_7_"  style="overflow:visible;"/>
			</clipPath>
			<path class="st3" d="M73.6,45.8l-0.4-2h-0.1c-1.3,1.6-3.3,2.4-5.7,2.4c-4,0-6.4-2.9-6.4-6.1c0-5.1,4.6-7.6,11.6-7.6v-0.3
				c0-1-0.6-2.6-3.6-2.6c-2,0-4.2,0.7-5.5,1.5l-1.1-4c1.4-0.8,4.1-1.7,7.7-1.7c6.6,0,8.7,3.9,8.7,8.5V41c0,1.9,0.1,3.7,0.3,4.8
				L73.6,45.8L73.6,45.8z M72.8,36.5c-3.2,0-5.7,0.7-5.7,3.1c0,1.6,1,2.4,2.4,2.4c1.5,0,2.8-1,3.2-2.3c0.1-0.3,0.1-0.7,0.1-1
				L72.8,36.5L72.8,36.5z"/>
		</g>
		<g>
			<defs>
				<rect id="SVGID_9_" x="-8.2" y="0.8" width="161.4" height="58.4"/>
			</defs>
			<clipPath id="SVGID_10_">
				<use xlink:href="#SVGID_9_"  style="overflow:visible;"/>
			</clipPath>
			<path class="st4" d="M82.1,32.5c0-2.9-0.1-4.8-0.2-6.5h5.3l0.2,3.6h0.2c1-2.9,3.4-4.1,5.4-4.1c0.6,0,0.9,0,1.3,0.1v5.8
				c-0.4-0.1-1-0.2-1.7-0.2c-2.3,0-3.8,1.2-4.2,3.1c-0.1,0.4-0.1,0.9-0.1,1.4v10.1h-6.2L82.1,32.5L82.1,32.5z"/>
		</g>
		<g>
			<defs>
				<rect id="SVGID_11_" x="-8.2" y="0.8" width="161.4" height="58.4"/>
			</defs>
			<clipPath id="SVGID_12_">
				<use xlink:href="#SVGID_11_"  style="overflow:visible;"/>
			</clipPath>
			<rect x="96.3" y="17.1" class="st5" width="3.6" height="28.8"/>
		</g>
		<g>
			<defs>
				<rect id="SVGID_13_" x="-8.2" y="0.8" width="161.4" height="58.4"/>
			</defs>
			<clipPath id="SVGID_14_">
				<use xlink:href="#SVGID_13_"  style="overflow:visible;"/>
			</clipPath>
			<path class="st6" d="M108.3,20.7c0,1.2-0.9,2.2-2.3,2.2c-1.3,0-2.1-1-2.1-2.2c0-1.3,0.9-2.2,2.2-2.2
				C107.4,18.5,108.3,19.5,108.3,20.7 M104.3,26.2h3.6v19.6h-3.6V26.2z"/>
		</g>
		<g>
			<defs>
				<rect id="SVGID_15_" x="-8.2" y="0.8" width="161.4" height="58.4"/>
			</defs>
			<clipPath id="SVGID_16_">
				<use xlink:href="#SVGID_15_"  style="overflow:visible;"/>
			</clipPath>
			<path class="st7" d="M112.1,31.5c0-2,0-3.7-0.2-5.3h3.2l0.2,3.2h0.1c1-1.9,3.2-3.7,6.5-3.7c2.7,0,6.9,1.6,6.9,8.3v11.7h-3.6V34.5
				c0-3.2-1.2-5.8-4.5-5.8c-2.4,0-4.2,1.7-4.8,3.7c-0.2,0.4-0.3,1-0.3,1.7v11.8h-3.6L112.1,31.5L112.1,31.5z"/>
		</g>
		<g>
			<defs>
				<rect id="SVGID_17_" x="-8.2" y="0.8" width="161.4" height="58.4"/>
			</defs>
			<clipPath id="SVGID_18_">
				<use xlink:href="#SVGID_17_"  style="overflow:visible;"/>
			</clipPath>
			<path class="st8" d="M137.1,20.6v5.6h5.1v2.7h-5.1v10.6c0,2.4,0.7,3.8,2.7,3.8c0.9,0,1.6-0.1,2.1-0.3l0.2,2.7
				c-0.7,0.3-1.8,0.5-3.2,0.5c-1.7,0-3-0.5-3.8-1.5c-1-1-1.4-2.8-1.4-5.1V28.9h-3v-2.7h3v-4.7L137.1,20.6z"/>
		</g>
	</g>
	<g>
		<g>
			<g>
				<defs>
					<rect id="SVGID_19_" x="147" y="9.4" width="45.3" height="45.3"/>
				</defs>
				<clipPath id="SVGID_20_">
					<use xlink:href="#SVGID_19_"  style="overflow:visible;"/>
				</clipPath>
				<path class="st9" d="M169.6,49.3c-9.5,0-17.3-7.7-17.3-17.3s7.8-17.3,17.3-17.3c9.5,0,17.3,7.7,17.3,17.3
					C186.9,41.5,179.1,49.3,169.6,49.3 M169.6,17.9c-7.8,0-14.1,6.3-14.1,14.1s6.3,14.1,14.1,14.1s14.1-6.3,14.1-14.1
					C183.7,24.2,177.4,17.9,169.6,17.9"/>
			</g>
		</g>
		<path class="st10" d="M181.7,31.1c-0.5-0.9-1-2-2.1-2c-1.1,0-1.7,1.1-2.1,2c-0.4,0.8-0.7,1.3-1.2,1.3s-0.8-0.4-1.2-1.3
			c-0.5-0.9-1-2-2.1-2c-1.1,0-1.7,1.1-2.1,2c-0.4,0.8-0.7,1.3-1.2,1.3s-0.8-0.4-1.2-1.3c-0.5-0.9-1-2-2.1-2c-1.1,0-1.7,1.1-2.1,2
			c-0.4,0.8-0.7,1.3-1.2,1.3s-0.8-0.4-1.2-1.3c-0.5-0.9-1-2-2.1-2c-1.1,0-1.7,1.1-2.1,2c0,0-0.3,0.8-0.5,1.1
			c-0.1,0.4-0.7,1.7-0.2,2.4c0.3,0.4,0.7-0.2,1-0.5c0.2-0.3,0.6-1.2,0.6-1.2c0.5-0.8,0.7-1.2,1.2-1.2c0.5,0,0.8,0.4,1.2,1.3
			c0.5,0.9,1,2,2.1,2c1.1,0,1.7-1.1,2.1-2c0.4-0.8,0.7-1.3,1.2-1.3s0.8,0.4,1.2,1.3c0.5,0.9,1,2,2.1,2c1.1,0,1.7-1.1,2.1-2
			c0.4-0.8,0.7-1.3,1.2-1.3s0.8,0.4,1.2,1.3c0.5,0.9,1,2,2.1,2c1.1,0,1.7-1.1,2.1-2c0.4-0.8,0.7-1.3,1.2-1.3s0.8,0.4,1.2,1.3
			c0,0,0.2,0.4,0.5,0.9c0.1,0.2,0.6,1,1,1c0.4,0,0.5-1.2,0.1-2.2C182,31.8,181.7,31.1,181.7,31.1z"/>
	</g>
</g>
</svg>
