<?xml version="1.0" encoding="utf-8"?>
<!-- Generator: Adobe Illustrator 23.1.1, SVG Export Plug-In . SVG Version: 6.00 Build 0)  -->
<svg version="1.1" id="Calque_1" xmlns="http://www.w3.org/2000/svg" xmlns:xlink="http://www.w3.org/1999/xlink" x="0px" y="0px"
	 viewBox="0 0 240 60" style="enable-background:new 0 0 240 60;" xml:space="preserve">
<style type="text/css">
	.st0{fill:#1A161A;}
	.st1{fill-rule:evenodd;clip-rule:evenodd;fill:#1A161A;}
	.st2{fill:#4E9BCD;}
</style>
<path class="st0" d="M3.6,40.3c1.6,0.9,3.5,1.4,5.3,1.5c1.9,0,2.7-0.7,2.7-1.7s-0.6-1.5-2.9-2.3c-4.1-1.4-5.7-3.6-5.7-6
	c0-3.7,3.2-6.5,8.1-6.5c1.9,0,3.9,0.4,5.6,1.1l-1.1,4.4c-1.3-0.7-2.8-1.1-4.3-1.1s-2.4,0.6-2.4,1.6c0,0.9,0.8,1.4,3.2,2.3
	c3.8,1.3,5.4,3.2,5.4,6.2c0,3.7-2.9,6.5-8.7,6.5c-2.6,0-4.9-0.6-6.5-1.4L3.6,40.3z M39.4,35.5c0,7.3-5.2,10.7-10.5,10.7
	c-5.8,0-10.3-3.8-10.3-10.3s4.2-10.6,10.7-10.6C35.3,25.3,39.4,29.5,39.4,35.5z M24.9,35.7c0,3.4,1.4,6,4.1,6c2.4,0,4-2.4,4-6
	c0-3-1.1-6-4-6S24.9,32.8,24.9,35.7z M41.6,32.2c0-2.5-0.1-4.6-0.2-6.4h5.4l0.3,2.7h0.1c1.4-2,3.7-3.2,6.2-3.2
	c4.1,0,7.1,2.7,7.1,8.6v11.8h-6.2v-11c0-2.6-0.9-4.3-3.1-4.3c-1.4,0-2.7,0.9-3.1,2.3c-0.2,0.5-0.3,1-0.2,1.6v11.5h-6.3V32.2z
	 M75.3,45.7l-0.4-2h-0.1c-1.3,1.6-3.4,2.5-5.7,2.5c-4,0-6.5-2.9-6.5-6.1c0-5.2,4.7-7.7,11.7-7.6v-0.3c0-1.1-0.6-2.6-3.6-2.6
	c-1.9,0-3.8,0.5-5.5,1.5l-1.1-4c1.4-0.8,4.1-1.8,7.8-1.8c6.7,0,8.8,3.9,8.8,8.6v6.9c0,1.6,0.1,3.2,0.3,4.8
	C80.8,45.7,75.3,45.7,75.3,45.7L75.3,45.7z M74.5,36.3c-3.3,0-5.8,0.7-5.8,3.1c0,1.6,1.1,2.4,2.5,2.4c1.5,0,2.8-0.9,3.2-2.3
	c0.1-0.3,0.1-0.7,0.1-1.1C74.5,38.4,74.5,36.3,74.5,36.3z M83.8,32.4c0-2.9-0.1-4.8-0.2-6.6h5.3l0.2,3.7h0.2c1-2.9,3.5-4.1,5.4-4.1
	c0.4,0,0.9,0,1.3,0.1v5.9c-0.6-0.1-1.1-0.2-1.7-0.2c-2.3,0-3.8,1.2-4.2,3.1C90,34.8,90,35.2,90,35.7v10.1h-6.2L83.8,32.4L83.8,32.4z
	 M137,40.3c0,2,0,3.8,0.2,5.4H134l-0.2-3.2h-0.1c-1.4,2.3-3.9,3.7-6.5,3.7c-3.1,0-6.8-1.7-6.8-8.7V26h3.6v10.9
	c0,3.8,1.1,6.3,4.4,6.3c2.1,0,4-1.3,4.7-3.3c0.2-0.6,0.3-1.2,0.3-1.8V26h3.6C137,26,137,40.3,137,40.3z M141.2,45.7
	c0.1-1.3,0.2-3.4,0.2-5.1V16.8h3.6v12.4h0.1c1.3-2.2,3.6-3.6,6.7-3.6c4.9,0,8.4,4.1,8.3,10.1c0,7.1-4.4,10.6-8.9,10.6
	c-2.9,0-5.1-1.1-6.6-3.7h-0.1l-0.2,3.3L141.2,45.7L141.2,45.7z M144.9,37.8c0,0.4,0.1,0.9,0.2,1.3c0.6,2.5,2.8,4.2,5.4,4.2
	c3.8,0,6-3.1,6-7.6c0-4-2-7.3-5.9-7.3c-2.6,0.1-4.9,1.9-5.5,4.4c-0.1,0.5-0.2,1-0.2,1.5C144.9,34.3,144.9,37.8,144.9,37.8z
	 M165,36.5c0.1,4.8,3.2,6.9,6.8,6.9c1.9,0.1,3.7-0.3,5.5-1l0.6,2.6c-1.3,0.6-3.4,1.2-6.6,1.2c-6.1,0-9.7-4-9.7-10s3.5-10.7,9.3-10.7
	c6.5,0,8.2,5.7,8.2,9.3c0,0.6,0,1.1-0.1,1.7H165z M175.5,33.9c0-2.3-0.9-5.8-5-5.8c-3.6,0-5.2,3.4-5.5,5.8H175.5z"/>
<path class="st1" d="M116.1,29.5c-2-2.9-5.3-4.7-8.8-4.7c-5.9,0-10.7,4.8-10.7,10.7s4.8,10.7,10.7,10.7c1.5,0,2.9-0.3,4.3-0.9
	l4.1,6.7l3.3-2.2l-4.1-6.7C118.4,39.5,119,33.8,116.1,29.5 M111.5,41.7c-1.2,0.8-2.7,1.3-4.2,1.3c-4.1,0-7.5-3.4-7.5-7.5
	s3.4-7.5,7.5-7.5c2.5,0,4.8,1.2,6.2,3.3C115.8,34.7,114.9,39.4,111.5,41.7"/>
<path class="st2" d="M203.5,45.8H201c0-20.4-16.8-37-37.5-37V6.4C185.6,6.4,203.5,24.1,203.5,45.8z"/>
<path class="st2" d="M205.3,32.2c-3-12.8-13.4-23.5-26.4-27.2l0.6-2c13.7,3.9,24.6,15.2,27.9,28.7L205.3,32.2z M207.2,20.2
	c-3.2-6.9-8.5-12.8-15-16.8l0.9-1.4c6.8,4.2,12.3,10.2,15.7,17.5L207.2,20.2L207.2,20.2z"/>
</svg>
