<svg xmlns="http://www.w3.org/2000/svg" width="150" height="25" viewBox="0 0 150 24.1" xml:space="preserve"><path d="M12 19.4c-4.1 0-7.4-3.3-7.4-7.4S7.9 4.6 12 4.6c1.7 0 3.4.6 4.7 1.7.1.1.3.1.5 0v-.1c.5-1.2 1.2-2.3 2-3.3.1-.1.1-.4 0-.5-5.4-4-12.9-2.9-16.9 2.5S-.5 17.8 4.8 21.7c4.2 3.1 10 3.1 14.3 0 .1-.1.2-.3.1-.5-.8-1-1.5-2.1-2-3.3-.1-.2-.3-.2-.4-.2h-.1c-1.3 1.1-3 1.7-4.7 1.7M38.2 12c0 4.1-3.3 7.4-7.4 7.4s-7.4-3.3-7.4-7.4 3.3-7.4 7.4-7.4c4.1 0 7.4 3.3 7.4 7.4m4.6 0c0-6.6-5.4-12-12-12s-12 5.4-12 12 5.4 12 12 12 12-5.4 12-12M128.9.2h-4c-.1 0-.1 0-.2.1s-.2.2-.2.3v22.7c0 .1 0 .1.1.2s.2.2.3.2h4c.1 0 .1 0 .2-.1s.2-.2.2-.3V.5c0-.1 0-.1-.1-.2s-.2-.1-.3-.1m20 13.6c-.7-.8-1.5-1.5-2.5-2-1.2-.6-2.5-1.1-3.7-1.5-1.4-.5-2.5-.9-3.2-1.2-.6-.2-1.1-.6-1.5-1-.3-.4-.5-.9-.5-1.4 0-.7.3-1.4.9-1.8.7-.5 1.6-.7 2.5-.7 1.1-.1 2.3.3 3.2 1 .7.6 1.2 1.5 1.2 2.4v.3c0 .1 0 .1.1.2s.2.2.3.2h3.9c.1 0 .1 0 .2-.1s.2-.2.2-.3v-.7c0-1.3-.4-2.7-1.1-3.8-.8-1.1-1.9-2-3.1-2.5-1.4-.6-3-.9-4.5-.9s-2.9.2-4.3.8c-1.2.5-2.2 1.3-2.9 2.3-.7 1-1.1 2.3-1 3.5 0 1.2.3 2.4 1.1 3.4.7.9 1.6 1.7 2.6 2.2 1.2.6 2.5 1.1 3.8 1.6 1.3.5 2.3.9 2.9 1.2.5.2 1 .6 1.5 1 .4.4.5.9.5 1.4 0 .7-.3 1.4-.9 1.9-.8.6-1.7.8-2.7.8-1.2.1-2.4-.3-3.4-.9-.8-.5-1.2-1.4-1.2-2.3v-.5c0-.1 0-.1-.1-.2s-.2-.2-.3-.2h-3.8c-.1 0-.3.1-.3.2s-.1.1-.1.2v.6c0 1.3.4 2.6 1.1 3.7.8 1.1 1.9 2 3.1 2.5 1.5.6 3.1.9 4.7.9 2.2.1 4.5-.5 6.3-1.8 1.5-1.2 2.4-3 2.3-5-.1-1.3-.5-2.5-1.3-3.5M60.6.3c.1-.1.2-.1.3-.1h4.3c.1 0 .1 0 .2.1s.2.2.2.3v22.7c0 .1 0 .1-.1.2s-.2.2-.3.2H61c-.2 0-.4-.1-.5-.3L50.6 9c0-.1-.1-.1-.1-.1s-.1.1-.1.2l.1 14.2c0 .1-.1.3-.2.3s-.1.1-.2.1h-4.3c-.1 0-.1 0-.2-.1s-.2-.2-.2-.3V.5c0-.1 0-.1.1-.2s.2-.2.3-.2h4.1c.2 0 .4.1.5.3l9.9 14.3c0 .1.1.1.1.1l.1-.1V.6c0-.1 0-.2.1-.3m61.1-.1h-18.1c-.1 0-.2.1-.2.2 0 0 0 .1.1.1.5.4 1 .8 1.4 1.3.7.7 1.4 1.5 1.9 2.4.1.1.2.1.3.1h3.5c.1 0 .2.1.2.2v18.9c0 .1 0 .1.1.2s.2.2.3.2h4c.1 0 .1 0 .2-.1s.2-.2.2-.3v-19c0-.1.1-.2.2-.2h6c.1 0 .1 0 .2-.1s.2-.2.2-.3V.5c0-.1 0-.1-.1-.2s-.2-.1-.4-.1M94.3 0h-.1c-4.6 0-8.8 2.6-10.8 6.8l-.1.3c-.1.3-.2.6-.4.9l-3.8 9.3L72.3.4c0-.1-.2-.2-.3-.2h-4.2c-.2 0-.3.1-.3.3v.1l9.1 22.8c.1.1.2.2.3.2h4.4c.1 0 .3-.1.3-.2l4-10 1.5-3.6c1.3-3 3.7-5.2 7-5.2h.1c4.1 0 7.4 3.3 7.4 7.4s-3.3 7.4-7.4 7.4h-.1c-2.2 0-4.3-1-5.7-2.7-.1-.1-.3-.2-.5 0l-.1.1-1.7 4c-.1.1 0 .3.1.4 2.2 1.9 4.9 2.9 7.8 2.9h.1c6.6 0 12-5.3 12.1-12S100.9 0 94.3 0z" style="fill:#002A72"/></svg>