<svg width="387" height="129" viewBox="0 0 387 129" fill="none" xmlns="http://www.w3.org/2000/svg">
<path d="M385.799 86.1281V98.4008H382.197V85.7511C382.197 81.9813 380.689 80.3058 377.254 80.3058C373.903 80.3058 371.599 82.5258 371.599 86.7564V98.4008H367.997V77.4575H371.599V80.8922C372.94 78.4209 375.411 77.0387 378.217 77.0387C383.034 77.0387 385.799 80.3477 385.799 86.1281Z" fill="#101214"/>
<path d="M353.925 98.8197C347.642 98.8197 343.956 94.1703 343.956 87.8873C343.956 81.6043 347.642 77.0387 353.925 77.0387C360.167 77.0387 363.811 81.6043 363.811 87.8873C363.811 94.1703 360.167 98.8197 353.925 98.8197ZM353.925 80.3896C349.444 80.3896 347.475 83.9081 347.475 87.8873C347.475 91.8665 349.444 95.4688 353.925 95.4688C358.365 95.4688 360.292 91.8665 360.292 87.8873C360.292 83.9081 358.365 80.3896 353.925 80.3896Z" fill="#101214"/>
<path d="M335.503 71.9284C335.503 70.3367 336.55 69.4152 338.016 69.4152C339.482 69.4152 340.529 70.3367 340.529 71.9284C340.529 73.5201 339.482 74.4416 338.016 74.4416C336.55 74.4416 335.503 73.5201 335.503 71.9284ZM336.173 98.4008V77.4575H339.775V98.4008H336.173Z" fill="#101214"/>
<path d="M325.982 91.9084C325.982 93.7514 327.071 95.008 329.291 95.008C330.129 95.008 330.924 94.8405 331.553 94.7148V98.1914C330.924 98.3589 330.212 98.5265 329.123 98.5265C324.641 98.5265 322.463 95.8876 322.463 91.9922V80.8084H319.07V77.4575H322.463V73.0175H325.982V77.4575H331.553V80.8084H325.982V91.9084Z" fill="#101214"/>
<path d="M316.885 94.631V97.8563C315.629 98.5265 313.702 98.8197 311.775 98.8197C304.319 98.8197 300.843 94.296 300.843 87.8873C300.843 81.5624 304.319 77.0387 311.775 77.0387C313.66 77.0387 315.126 77.29 316.76 78.0439V81.3949C315.419 80.7666 313.995 80.3896 312.026 80.3896C306.581 80.3896 304.361 83.8243 304.361 87.8873C304.361 91.9503 306.623 95.385 312.11 95.385C314.246 95.385 315.587 95.0918 316.885 94.631Z" fill="#101214"/>
<path d="M288.594 80.3058C284.783 80.3058 282.856 82.7771 282.479 86.4213H294.165C293.956 82.5258 292.197 80.3058 288.594 80.3058ZM296.637 97.5631C294.919 98.4846 292.28 98.8197 290.144 98.8197C282.311 98.8197 278.877 94.296 278.877 87.8873C278.877 81.5624 282.395 77.0387 288.762 77.0387C295.213 77.0387 297.809 81.5205 297.809 87.8873V89.5209H282.521C283.023 93.0812 285.327 95.385 290.27 95.385C292.699 95.385 294.752 94.9243 296.637 94.2541V97.5631Z" fill="#101214"/>
<path d="M276.872 98.3591C276.579 98.4429 275.95 98.5267 275.029 98.5267C271.594 98.5267 269.416 96.8931 269.416 93.0395V68.7034H273.018V92.6207C273.018 94.5056 274.275 95.1757 275.825 95.1757C276.202 95.1757 276.453 95.1757 276.872 95.1339V98.3591Z" fill="#101214"/>
<path d="M265.95 98.3591C265.657 98.4429 265.029 98.5267 264.107 98.5267C260.673 98.5267 258.494 96.8931 258.494 93.0395V68.7034H262.097V92.6207C262.097 94.5056 263.353 95.1757 264.903 95.1757C265.28 95.1757 265.531 95.1757 265.95 95.1339V98.3591Z" fill="#101214"/>
<path d="M244.423 98.8197C238.14 98.8197 234.454 94.1703 234.454 87.8873C234.454 81.6043 238.14 77.0387 244.423 77.0387C250.664 77.0387 254.308 81.6043 254.308 87.8873C254.308 94.1703 250.664 98.8197 244.423 98.8197ZM244.423 80.3896C239.941 80.3896 237.972 83.9081 237.972 87.8873C237.972 91.8665 239.941 95.4688 244.423 95.4688C248.863 95.4688 250.79 91.8665 250.79 87.8873C250.79 83.9081 248.863 80.3896 244.423 80.3896Z" fill="#101214"/>
<path d="M231.812 93.5418V97.186C230.094 98.3169 227.372 98.8196 224.524 98.8196C215.476 98.8196 210.366 93.3743 210.366 84.7038C210.366 76.3264 215.476 70.4623 224.44 70.4623C227.121 70.4623 229.801 70.9649 231.77 72.3891V76.0332C229.801 74.7766 227.623 74.1064 224.44 74.1064C217.989 74.1064 214.136 78.3789 214.136 84.7038C214.136 91.0286 218.115 95.2173 224.649 95.2173C227.539 95.2173 229.801 94.5471 231.812 93.5418Z" fill="#101214"/>
<rect x="0.932678" y="45.5628" width="197.596" height="81.9521" transform="rotate(-1 0.932678 45.5628)" fill="#FB9700"/>
<path d="M42.0022 89.773C42.0022 95.4696 38.7769 98.8624 30.8185 98.8624C25.9596 98.8624 22.4411 97.7734 20.1793 96.5587V89.0191C22.7344 90.1919 27.5513 91.4904 30.7347 91.4904C32.6615 91.4904 33.3736 90.8621 33.3736 89.8568C33.3736 88.8096 32.5358 88.2232 30.3577 87.8043C22.1898 86.464 19.8442 83.2387 19.8442 79.05C19.8442 73.6467 23.8234 70.4214 31.1117 70.4214C34.9653 70.4214 38.6094 71.2591 40.9551 72.5157V79.804C37.3947 78.4636 33.2898 77.584 30.9023 77.584C29.1011 77.584 28.1796 78.1285 28.1796 79.1757C28.1796 80.2229 29.143 80.7255 32.0332 81.27C40.0754 82.5685 42.0022 85.6681 42.0022 89.773Z" fill="#101214"/>
<path d="M53.1562 89.7311C53.1562 91.0715 53.8264 91.7417 55.1248 91.7417C55.7531 91.7417 56.3396 91.616 56.8003 91.5323V98.276C55.7113 98.5273 54.4965 98.7368 52.6116 98.7368C47.1664 98.7368 45.2815 95.5115 45.2815 90.8202V83.113H43.2709V76.7044H45.2815V72.3063H53.1562V76.7044H56.8003V83.113H53.1562V89.7311Z" fill="#101214"/>
<path d="M67.5361 87.8881V98.4017H59.5776V76.7044H67.5361V80.8093C68.667 77.8772 70.4262 76.2436 73.2745 76.4112V84.5372C69.044 84.244 67.5361 85.0817 67.5361 87.8881Z" fill="#101214"/>
<path d="M81.912 87.553C81.912 90.6108 82.9173 92.1187 84.8022 92.1187C86.352 92.1187 87.6924 90.9877 87.6924 88.3908V86.6734C87.6924 84.0345 86.5614 82.9036 84.9697 82.9036C82.9592 82.9036 81.912 84.5791 81.912 87.553ZM87.6924 98.4017V94.5481C86.4358 97.4383 84.1739 98.8205 81.4513 98.8205C76.4249 98.8205 74.1211 94.0873 74.1211 87.553C74.1211 81.3957 76.4249 76.2855 81.7864 76.2855C84.6346 76.2855 86.6033 77.961 87.6924 80.4323V76.7044H95.6089V98.4017H87.6924Z" fill="#101214"/>
<path d="M107.519 89.7311C107.519 91.0715 108.189 91.7417 109.487 91.7417C110.116 91.7417 110.702 91.616 111.163 91.5323V98.276C110.074 98.5273 108.859 98.7368 106.974 98.7368C101.529 98.7368 99.6441 95.5115 99.6441 90.8202V83.113H97.6336V76.7044H99.6441V72.3063H107.519V76.7044H111.163V83.113H107.519V89.7311Z" fill="#101214"/>
<path d="M123.789 81.7308C121.82 81.7308 120.815 83.1549 120.563 85.9613H126.888C126.679 83.0293 125.673 81.7308 123.789 81.7308ZM133.171 97.5221C131.119 98.276 128.312 98.8205 125.506 98.8205C116.835 98.8205 112.94 95.0089 112.94 87.8881C112.94 81.0606 116.71 76.2017 123.914 76.2017C131.035 76.2017 133.967 81.0187 133.967 87.8881V89.5217H120.731C121.233 91.6579 122.699 92.3281 125.673 92.3281C128.187 92.3281 130.951 91.9511 133.171 91.3228V97.5221Z" fill="#101214"/>
<path d="M149.132 95.7209V93.2496C147.875 96.1817 145.613 97.5639 142.849 97.5639C137.864 97.5639 135.56 93.0402 135.56 86.8828C135.56 81.1025 137.864 76.2855 143.226 76.2855C146.074 76.2855 148.043 78.0029 149.132 80.5161V76.7044H157.006V95.4277C157.006 102.255 153.613 106.821 144.692 106.821C141.801 106.821 138.744 106.402 136.356 105.732V98.6949C138.786 99.6583 141.299 100.077 143.938 100.077C147.791 100.077 149.132 98.2341 149.132 95.7209ZM143.351 86.8828C143.351 89.6892 144.357 91.1134 146.241 91.1134C147.917 91.1134 149.132 89.9406 149.132 87.176V86.4221C149.132 83.9508 147.959 82.8617 146.367 82.8617C144.357 82.8617 143.351 84.3278 143.351 86.8828Z" fill="#101214"/>
<path d="M164.687 106.821C161.671 106.821 160.498 106.695 159.325 106.193V99.3232C160.791 99.7002 162.09 99.8258 163.765 99.8258C166.823 99.8258 167.912 98.6111 168.498 96.433H163.598L158.404 76.7044H166.111L169.671 91.6579L173.273 76.7044H180.98L175.284 97.6477C173.608 103.805 170.132 106.821 164.687 106.821Z" fill="#101214"/>
<path d="M130.316 60.1894C127.22 62.739 128.13 63.9227 131.409 61.6463C136.052 58.3682 140.879 54.908 146.98 50.264C153.809 44.9827 155.357 43.4346 160.092 39.8834C161.367 38.9728 162.733 37.8801 164.281 36.7875C165.009 36.2411 165.829 35.6037 166.648 35.0573C167.012 34.7842 167.467 34.4199 167.832 34.1467L168.196 33.7826C173.751 39.155 179.578 44.8916 181.49 46.7127C181.946 47.168 182.31 47.5323 182.765 47.8965C183.858 48.8982 186.317 51.1746 193.146 57.4576C194.603 56.0917 197.79 53.0868 201.705 49.3534C205.257 46.0754 209.445 42.1598 213.452 38.5175C221.829 30.7776 227.019 25.9515 229.751 23.493C236.125 17.5742 240.769 13.0213 245.322 8.4684C247.781 6.00984 246.87 5.00821 244.229 7.28466C239.312 11.3823 234.486 15.662 228.021 21.5808C225.563 23.8572 220.099 28.4101 212.723 35.0573C211.54 36.15 210.356 37.2427 209.172 38.4265C206.349 41.2493 203.253 44.1632 200.339 46.986C197.699 49.5356 195.149 51.9031 193.055 53.8153C189.686 50.7193 187.591 48.716 187.591 48.716L168.196 30.6866L157.269 38.9728C150.44 44.1631 147.162 46.6217 145.158 48.1697C139.057 52.8136 134.413 56.547 130.043 60.0983L130.316 60.1894Z" fill="#101214"/>
<path d="M237.309 3.64232C236.58 3.91549 236.854 5.46348 237.673 5.46348C238.766 5.46348 239.95 5.37242 241.498 5.00819C243.137 4.5529 243.501 4.18869 244.594 4.00657C245.504 3.82446 246.87 3.64234 248.054 3.55128C248.6 3.55128 249.146 3.46021 249.602 3.36915V3.46019C249.602 3.46019 249.602 3.55126 249.602 3.64232C249.602 4.91713 249.42 6.73832 249.146 8.28631C248.873 10.5628 248.782 11.9286 248.691 12.6571C248.509 14.3872 248.6 15.662 248.782 16.9368C248.873 17.6653 250.239 17.7563 250.421 17.0278C250.786 15.8441 251.059 14.5693 251.241 12.8392C251.241 12.2018 251.787 10.8359 252.06 8.92367C252.06 8.65049 252.06 8.28628 252.06 7.92205C252.06 7.19359 252.06 6.4651 252.06 5.73664C252.06 5.37241 252.06 5.00822 252.06 4.64399C252.06 4.27976 252.06 3.91551 252.06 3.55128C252.06 2.54964 252.151 1.63905 252.242 1.09271C252.242 0.455301 252.242 0.0910913 252.242 0.0910913C252.242 0.0910913 252.242 0.0910579 252.242 0C252.242 0 252.06 0 251.969 0C251.696 0 251.332 0.091069 250.877 0.182127C250.148 0.364243 249.055 0.54637 247.963 0.819544C246.415 1.18378 244.594 1.54801 243.501 1.73012C241.862 2.09435 241.042 2.27648 240.587 2.36754C239.13 2.73177 238.037 3.0049 236.945 3.46019L237.309 3.64232Z" fill="#101214"/>
</svg>
