<svg width="182" height="48" viewBox="0 0 182 48" fill="none" xmlns="http://www.w3.org/2000/svg">
<path d="M175.648 30.87C175.648 32.894 176.844 34.274 179.282 34.274C180.202 34.274 181.076 34.09 181.766 33.952V37.77C181.076 37.954 180.294 38.138 179.098 38.138C174.176 38.138 171.784 35.24 171.784 30.962V18.68H168.058V15H171.784V10.124H175.648V15H181.766V18.68H175.648V30.87Z" fill="#101214"/>
<path d="M164.657 24.522V38H160.701V24.108C160.701 19.968 159.045 18.128 155.273 18.128C151.593 18.128 149.063 20.566 149.063 25.212V38H145.107V15H149.063V18.772C150.535 16.058 153.249 14.54 156.331 14.54C161.621 14.54 164.657 18.174 164.657 24.522Z" fill="#101214"/>
<path d="M130.276 18.128C126.09 18.128 123.974 20.842 123.56 24.844H136.394C136.164 20.566 134.232 18.128 130.276 18.128ZM139.108 37.08C137.222 38.092 134.324 38.46 131.978 38.46C123.376 38.46 119.604 33.492 119.604 26.454C119.604 19.508 123.468 14.54 130.46 14.54C137.544 14.54 140.396 19.462 140.396 26.454V28.248H123.606C124.158 32.158 126.688 34.688 132.116 34.688C134.784 34.688 137.038 34.182 139.108 33.446V37.08Z" fill="#101214"/>
<path d="M117.403 37.9542C117.081 38.0462 116.391 38.1382 115.379 38.1382C111.607 38.1382 109.215 36.3442 109.215 32.1122V5.38623H113.171V31.6522C113.171 33.7222 114.551 34.4582 116.253 34.4582C116.667 34.4582 116.943 34.4582 117.403 34.4122V37.9542Z" fill="#101214"/>
<path d="M86.2751 26.5C86.2751 32.02 88.4831 34.78 92.5771 34.78C96.1191 34.78 99.2931 32.526 99.2931 27.42V25.58C99.2931 20.474 96.3951 18.22 93.0371 18.22C88.5751 18.22 86.2751 21.164 86.2751 26.5ZM99.2931 38V33.86C97.8211 36.896 95.0611 38.46 91.5191 38.46C85.4011 38.46 82.3191 33.262 82.3191 26.5C82.3191 20.014 85.5391 14.54 91.9791 14.54C95.3371 14.54 97.9131 16.058 99.2931 19.048V15H103.249V38H99.2931Z" fill="#101214"/>
<path d="M60.4141 7.77832H83.0461V11.7343H73.8001V38.0003H69.6601V11.7343H60.4141V7.77832Z" fill="#101214"/>
<g clip-path="url(#clip0_13416_3748)">
<path d="M0 12C0 5.37258 5.37258 0 12 0H36C42.6274 0 48 5.37258 48 12V36C48 42.6274 42.6274 48 36 48H12C5.37258 48 0 42.6274 0 36V12Z" fill="#FB9700"/>
<path fill-rule="evenodd" clip-rule="evenodd" d="M18.5933 17.5061L23.1471 7.35986H24.8644L29.4182 17.5061L40.4751 18.7017L41.0058 20.335L32.7633 27.8012L35.043 38.6864L33.6537 39.6958L24.0058 34.164L14.3578 39.6958L12.9685 38.6864L15.2482 27.8012L7.00574 20.335L7.53643 18.7017L18.5933 17.5061ZM20.1486 30.3367V28.9797C20.1486 26.9283 21.8115 25.2654 23.8629 25.2654C25.9142 25.2654 27.5772 26.9283 27.5772 28.9797V30.2051C26.4827 30.891 25.1909 31.2912 23.8063 31.3011H23.7009C22.4074 31.2919 21.1949 30.942 20.1486 30.3367ZM23.8629 24.0682C25.4014 24.0682 26.6486 22.821 26.6486 21.2825C26.6486 19.744 25.4014 18.4968 23.8629 18.4968C22.3244 18.4968 21.0772 19.744 21.0772 21.2825C21.0772 22.821 22.3244 24.0682 23.8629 24.0682Z" fill="#101214"/>
</g>
<defs>
<clipPath id="clip0_13416_3748">
<path d="M0 12C0 5.37258 5.37258 0 12 0H36C42.6274 0 48 5.37258 48 12V36C48 42.6274 42.6274 48 36 48H12C5.37258 48 0 42.6274 0 36V12Z" fill="white"/>
</clipPath>
</defs>
</svg>
