<svg width="363" height="135" viewBox="0 0 363 135" fill="none" xmlns="http://www.w3.org/2000/svg">
<path d="M362.124 64.5085V76.7813H358.522V64.1315C358.522 60.3617 357.014 58.6862 353.579 58.6862C350.228 58.6862 347.924 60.9062 347.924 65.1368V76.7813H344.322V55.8379H347.924V59.2726C349.265 56.8013 351.736 55.4191 354.542 55.4191C359.359 55.4191 362.124 58.7281 362.124 64.5085Z" fill="#101214"/>
<path d="M330.25 77.2001C323.967 77.2001 320.281 72.5507 320.281 66.2677C320.281 59.9847 323.967 55.4191 330.25 55.4191C336.492 55.4191 340.136 59.9847 340.136 66.2677C340.136 72.5507 336.492 77.2001 330.25 77.2001ZM330.25 58.77C325.769 58.77 323.8 62.2885 323.8 66.2677C323.8 70.2469 325.769 73.8492 330.25 73.8492C334.69 73.8492 336.617 70.2469 336.617 66.2677C336.617 62.2885 334.69 58.77 330.25 58.77Z" fill="#101214"/>
<path d="M311.828 50.3088C311.828 48.7171 312.875 47.7956 314.341 47.7956C315.807 47.7956 316.854 48.7171 316.854 50.3088C316.854 51.9005 315.807 52.822 314.341 52.822C312.875 52.822 311.828 51.9005 311.828 50.3088ZM312.498 76.7812V55.8379H316.1V76.7812H312.498Z" fill="#101214"/>
<path d="M302.307 70.2888C302.307 72.1318 303.396 73.3884 305.616 73.3884C306.454 73.3884 307.249 73.2209 307.878 73.0952V76.5718C307.249 76.7394 306.537 76.9069 305.448 76.9069C300.966 76.9069 298.788 74.268 298.788 70.3726V59.1888H295.395V55.8379H298.788V51.3979H302.307V55.8379H307.878V59.1888H302.307V70.2888Z" fill="#101214"/>
<path d="M293.21 73.0115V76.2367C291.954 76.9069 290.027 77.2001 288.1 77.2001C280.644 77.2001 277.168 72.6764 277.168 66.2677C277.168 59.9428 280.644 55.4191 288.1 55.4191C289.985 55.4191 291.451 55.6704 293.085 56.4243V59.7753C291.744 59.147 290.32 58.77 288.351 58.77C282.906 58.77 280.686 62.2047 280.686 66.2677C280.686 70.3307 282.948 73.7654 288.435 73.7654C290.571 73.7654 291.912 73.4722 293.21 73.0115Z" fill="#101214"/>
<path d="M264.919 58.6862C261.108 58.6862 259.181 61.1575 258.804 64.8017H270.49C270.281 60.9062 268.522 58.6862 264.919 58.6862ZM272.962 75.9435C271.244 76.865 268.605 77.2001 266.469 77.2001C258.636 77.2001 255.202 72.6764 255.202 66.2677C255.202 59.9428 258.72 55.4191 265.087 55.4191C271.537 55.4191 274.134 59.9009 274.134 66.2677V67.9013H258.846C259.348 71.4617 261.652 73.7654 266.595 73.7654C269.024 73.7654 271.077 73.3047 272.962 72.6345V75.9435Z" fill="#101214"/>
<path d="M253.197 76.7395C252.904 76.8233 252.275 76.9071 251.354 76.9071C247.919 76.9071 245.741 75.2735 245.741 71.4199V47.0838H249.343V71.0011C249.343 72.886 250.6 73.5562 252.15 73.5562C252.527 73.5562 252.778 73.5562 253.197 73.5143V76.7395Z" fill="#101214"/>
<path d="M242.275 76.7395C241.982 76.8233 241.354 76.9071 240.432 76.9071C236.998 76.9071 234.819 75.2735 234.819 71.4199V47.0838H238.422V71.0011C238.422 72.886 239.678 73.5562 241.228 73.5562C241.605 73.5562 241.856 73.5562 242.275 73.5143V76.7395Z" fill="#101214"/>
<path d="M220.748 77.2001C214.465 77.2001 210.779 72.5507 210.779 66.2677C210.779 59.9847 214.465 55.4191 220.748 55.4191C226.989 55.4191 230.633 59.9847 230.633 66.2677C230.633 72.5507 226.989 77.2001 220.748 77.2001ZM220.748 58.77C216.266 58.77 214.297 62.2885 214.297 66.2677C214.297 70.2469 216.266 73.8492 220.748 73.8492C225.188 73.8492 227.115 70.2469 227.115 66.2677C227.115 62.2885 225.188 58.77 220.748 58.77Z" fill="#101214"/>
<path d="M208.137 71.9223V75.5664C206.419 76.6973 203.697 77.2 200.848 77.2C191.801 77.2 186.691 71.7547 186.691 63.0842C186.691 54.7068 191.801 48.8427 200.765 48.8427C203.445 48.8427 206.126 49.3454 208.095 50.7695V54.4136C206.126 53.157 203.948 52.4868 200.765 52.4868C194.314 52.4868 190.461 56.7593 190.461 63.0842C190.461 69.4091 194.44 73.5977 200.974 73.5977C203.864 73.5977 206.126 72.9275 208.137 71.9223Z" fill="#101214"/>
<rect x="3.79266" y="19.1746" width="172.099" height="81.9521" transform="rotate(2 3.79266 19.1746)" fill="#FFC716"/>
<path d="M145.778 60.1072C143.809 60.1072 142.804 61.5314 142.553 64.3378H148.877C148.668 61.4057 147.663 60.1072 145.778 60.1072ZM155.16 75.8985C153.108 76.6524 150.302 77.197 147.495 77.197C138.825 77.197 134.929 73.3853 134.929 66.2646C134.929 59.437 138.699 54.5782 145.904 54.5782C153.024 54.5782 155.956 59.3951 155.956 66.2646V67.8981H142.72C143.223 70.0344 144.689 70.7045 147.663 70.7045C150.176 70.7045 152.94 70.3276 155.16 69.6993V75.8985Z" fill="#101214"/>
<path d="M133.33 69.1547V75.8985C131.864 76.7362 129.979 77.2389 127.676 77.2389C119.717 77.2389 116.031 72.5476 116.031 65.8876C116.031 59.3114 119.717 54.5782 127.173 54.5782C129.77 54.5782 131.362 55.0389 133.247 55.9186V62.7461C131.864 62.1178 130.44 61.6989 128.43 61.6989C125.162 61.6989 123.822 63.6257 123.822 65.8876C123.822 68.2332 125.33 69.9506 128.639 69.9506C130.901 69.9506 132.116 69.6155 133.33 69.1547Z" fill="#101214"/>
<path d="M104.903 49.0492C104.903 46.3266 106.955 44.7349 109.72 44.7349C112.568 44.7349 114.579 46.3266 114.579 49.0492C114.579 51.8137 112.568 53.4054 109.72 53.4054C106.955 53.4054 104.903 51.8137 104.903 49.0492ZM105.783 76.7782V55.0809H113.699V76.7782H105.783Z" fill="#101214"/>
<path d="M98.6874 76.7781H87.7131L82.0165 55.0808H89.7236L93.284 71.2072L96.8443 55.0808H104.384L98.6874 76.7781Z" fill="#101214"/>
<path d="M75.6584 66.2646V76.7782H67.7V55.0809H75.6584V59.1858C76.7894 56.2537 78.5486 54.6201 81.3969 54.7877V62.9137C77.1664 62.6205 75.6584 63.4582 75.6584 66.2646Z" fill="#101214"/>
<path d="M55.1323 60.1072C53.1636 60.1072 52.1584 61.5314 51.907 64.3378H58.2319C58.0225 61.4057 57.0172 60.1072 55.1323 60.1072ZM64.5149 75.8985C62.4625 76.6524 59.6561 77.197 56.8497 77.197C48.1791 77.197 44.2837 73.3853 44.2837 66.2646C44.2837 59.437 48.0535 54.5782 55.258 54.5782C62.3787 54.5782 65.3108 59.3951 65.3108 66.2646V67.8981H52.0746C52.5772 70.0344 54.0433 70.7045 57.0172 70.7045C59.5304 70.7045 62.2949 70.3276 64.5149 69.6993V75.8985Z" fill="#101214"/>
<path d="M42.6799 68.1494C42.6799 73.846 39.4547 77.2388 31.4962 77.2388C26.6374 77.2388 23.1189 76.1498 20.857 74.9351V67.3955C23.4121 68.5683 28.2291 69.8668 31.4124 69.8668C33.3392 69.8668 34.0513 69.2385 34.0513 68.2332C34.0513 67.186 33.2136 66.5996 31.0355 66.1808C22.8676 64.8404 20.5219 61.6151 20.5219 57.4265C20.5219 52.0231 24.5011 48.7978 31.7894 48.7978C35.643 48.7978 39.2871 49.6355 41.6328 50.8921V58.1804C38.0724 56.84 33.9675 55.9604 31.58 55.9604C29.7789 55.9604 28.8574 56.5049 28.8574 57.5521C28.8574 58.5993 29.8207 59.1019 32.7109 59.6464C40.7532 60.9449 42.6799 64.0445 42.6799 68.1494Z" fill="#101214"/>
<path d="M103.184 31.3383C104.625 32.7565 103.532 33.8788 101.96 32.7168C100.886 31.9076 99.7363 30.9946 98.4827 30.1578C97.2428 29.231 95.9129 28.2904 94.4305 27.1423C91.0296 24.687 90.316 23.933 87.7673 22.5294C86.6523 21.9902 85.4749 21.2572 84.0899 20.6767C83.3973 20.3864 82.7048 20.0962 82.0123 19.8059C81.6523 19.7508 81.3198 19.5157 80.9736 19.3705C80.6135 19.3154 80.281 19.0802 79.921 19.0251C77.2134 18.0578 74.8245 17.4157 73.862 17.0841C73.592 17.0427 73.3219 17.0014 73.0795 16.7801C72.5532 16.6074 71.6807 16.2895 70.4481 15.9166C69.8318 15.7301 69.1255 15.5298 68.4193 15.3295C67.6992 15.2193 66.8266 14.9015 66.0303 14.6874C65.1303 14.5496 64.2577 14.2318 63.3714 14.004C62.4713 13.8662 61.495 13.6245 60.5187 13.3829C58.5523 12.9897 56.5721 12.6866 54.5919 12.3834C51.8016 11.9562 49.6414 11.6254 47.8412 11.3498C46.041 11.0742 44.7671 10.9712 43.8532 10.9234C39.5952 10.4557 36.4312 10.0634 33.3709 9.59481C31.6607 9.33297 31.7774 7.96906 33.5289 7.96088C36.6719 7.88939 39.8773 8.01166 44.2391 8.40313C45.8731 8.56119 49.3761 8.54484 54.3404 9.2128C55.1504 9.33683 55.9605 9.4609 56.6668 9.66116C58.3632 10.013 60.1358 10.4687 61.9084 10.9243C62.8085 11.0621 63.6948 11.2899 64.4911 11.5039C65.3012 11.628 66.0837 11.9321 66.88 12.1461C67.6001 12.2564 68.3064 12.4566 68.9227 12.643C69.5527 12.7395 70.0653 13.0022 70.5153 13.0711C71.4016 13.299 71.9279 13.4717 71.9279 13.4717C71.9279 13.4717 72.738 13.5957 74.0468 14.0724C75.2655 14.5354 77.1144 15.0949 78.9357 15.8343C82.772 17.2508 87.0382 19.47 89.4969 20.8597C93.223 22.9963 94.8716 24.262 95.869 24.9674C97.3513 26.1156 98.7574 27.1599 99.8935 28.163C101.12 29.1798 102.166 30.169 103.108 31.2345L103.184 31.3383Z" fill="#101214"/>
<path d="M42.364 0.193811C43.1392 -0.0559742 43.8601 1.25194 43.3136 1.81309C42.4695 2.51292 41.5354 3.19902 40.2275 3.91995C38.7395 4.61332 38.1995 4.53062 37.1891 5.11288C36.3864 5.54268 35.2722 6.20113 34.3381 6.88718C33.404 7.57323 32.7675 8.12063 32.5461 8.36309C32.5461 8.36309 32.4285 8.52934 32.3385 8.51556C32.2347 8.59179 32.0271 8.74424 31.9096 8.91048L31.8958 9.00047C31.8958 9.00047 31.8958 9.0005 31.882 9.09051C31.882 9.09051 31.8682 9.18047 31.8545 9.27048C31.9794 9.65808 32.3605 10.1771 32.8316 10.7098C33.3028 11.2425 33.8639 11.7891 34.4389 12.2456C36.0599 13.6913 37.1336 14.5005 37.6185 14.9432C38.9208 16.0638 39.8007 16.9355 40.5629 17.9734C40.9441 18.4923 40.1348 19.566 39.5323 19.2895C38.4174 18.7503 37.3299 18.0311 36.0138 17.0005C35.5289 16.5578 34.2339 15.9911 32.6753 14.7391C32.4328 14.5177 32.1904 14.2964 32.0517 13.9988C31.2132 12.8571 30.0909 11.7641 29.4113 10.1861C29.0715 9.39712 29.1193 8.48325 29.3058 7.86697C29.5685 7.35447 29.6998 7.0982 29.6998 7.0982C29.6998 7.0982 29.7136 7.00821 29.9212 6.85575C30.0388 6.68952 30.2464 6.53705 30.4677 6.29459C30.8967 5.89967 31.6094 5.45612 32.3221 5.01254C33.7339 4.21538 35.3394 3.35577 36.3359 2.86352C37.7477 2.06636 38.4466 1.71276 38.938 1.51164C40.246 0.790712 41.3187 0.402241 42.3015 0L42.364 0.193811Z" fill="#101214"/>
<path d="M97.018 94.0702C95.3644 92.4549 96.7351 91.4734 98.5599 92.849C99.8051 93.8042 101.136 94.8737 102.596 95.8804C104.034 96.9757 105.58 98.0968 107.297 99.4466C111.247 102.364 112.064 103.216 115.047 104.964C116.356 105.653 117.73 106.546 119.361 107.313C120.176 107.696 120.991 108.079 121.807 108.463C122.236 108.566 122.622 108.846 123.03 109.038C123.459 109.141 123.845 109.422 124.274 109.525C127.471 110.856 130.303 111.818 131.44 112.279C131.762 112.357 132.084 112.434 132.363 112.688C132.985 112.932 134.015 113.367 135.474 113.905C136.204 114.174 137.04 114.469 137.877 114.764C138.735 114.971 139.765 115.406 140.709 115.726C141.782 115.984 142.811 116.42 143.863 116.766C144.935 117.024 146.094 117.396 147.252 117.769C149.59 118.425 151.95 118.993 154.309 119.56C157.634 120.36 160.208 120.979 162.353 121.496C164.498 122.012 166.021 122.284 167.115 122.454C172.198 123.489 175.974 124.304 179.62 125.181C181.658 125.672 181.446 127.025 179.344 126.801C175.57 126.455 171.731 125.906 166.519 124.933C164.567 124.557 160.363 124.107 154.443 122.777C153.478 122.545 152.513 122.312 151.676 122.017C149.66 121.439 147.557 120.746 145.455 120.052C144.382 119.794 143.331 119.448 142.387 119.127C141.422 118.895 140.499 118.486 139.555 118.165C138.697 117.958 137.86 117.663 137.131 117.394C136.38 117.214 135.779 116.882 135.243 116.753C134.192 116.406 133.569 116.163 133.569 116.163C133.569 116.163 132.604 115.931 131.059 115.278C129.622 114.651 127.433 113.844 125.288 112.859C120.76 110.927 115.76 108.132 112.884 106.41C108.527 103.77 106.616 102.28 105.457 101.439C103.739 100.089 102.108 98.8536 100.798 97.6956C99.3806 96.5118 98.178 95.3795 97.104 94.1846L97.018 94.0702Z" fill="#101214"/>
<path d="M170.145 133.859C169.352 134.042 168.743 132.679 169.335 132.165C170.235 131.539 171.223 130.934 172.587 130.325C174.128 129.76 174.659 129.887 175.715 129.392C176.551 129.031 177.717 128.469 178.705 127.864C179.694 127.259 180.374 126.767 180.615 126.544C180.615 126.544 180.746 126.388 180.835 126.409C180.944 126.342 181.164 126.208 181.295 126.052L181.316 125.963C181.316 125.963 181.316 125.963 181.338 125.875C181.338 125.875 181.359 125.786 181.38 125.698C181.288 125.301 180.952 124.752 180.528 124.181C180.103 123.611 179.59 123.019 179.055 122.516C177.561 120.939 176.56 120.042 176.114 119.56C174.91 118.334 174.107 117.392 173.434 116.294C173.098 115.744 173.995 114.743 174.572 115.069C175.638 115.7 176.661 116.508 177.885 117.645C178.331 118.127 179.574 118.801 181.022 120.179C181.245 120.42 181.468 120.661 181.581 120.97C182.321 122.178 183.347 123.361 183.892 124.991C184.164 125.805 184.04 126.712 183.802 127.31C183.497 127.799 183.345 128.043 183.345 128.043C183.345 128.043 183.323 128.132 183.104 128.266C182.973 128.422 182.753 128.557 182.512 128.78C182.051 129.137 181.304 129.519 180.556 129.901C179.083 130.577 177.411 131.298 176.376 131.705C174.902 132.381 174.176 132.674 173.67 132.834C172.306 133.442 171.204 133.739 170.191 134.057L170.145 133.859Z" fill="#101214"/>
</svg>
