<svg width="233" height="48" viewBox="0 0 233 48" fill="none" xmlns="http://www.w3.org/2000/svg">
<path d="M232.489 24.522V38H228.533V24.108C228.533 19.968 226.877 18.128 223.105 18.128C219.425 18.128 216.895 20.566 216.895 25.212V38H212.939V15H216.895V18.772C218.367 16.058 221.081 14.54 224.163 14.54C229.453 14.54 232.489 18.174 232.489 24.522Z" fill="#101214"/>
<path d="M203.105 36.16V33.86C201.633 36.896 198.873 38.46 195.331 38.46C189.259 38.46 186.223 33.262 186.223 26.5C186.223 20.014 189.397 14.54 195.791 14.54C199.149 14.54 201.725 16.058 203.105 19.048V15H206.969V35.93C206.969 42.692 203.795 47.246 195.561 47.246C191.697 47.246 189.581 46.74 187.373 46.004V42.14C189.903 42.968 192.525 43.52 195.377 43.52C201.127 43.52 203.105 40.438 203.105 36.16ZM190.087 26.5C190.087 32.02 192.295 34.78 196.389 34.78C199.931 34.78 203.105 32.526 203.105 27.42V25.58C203.105 20.474 200.207 18.22 196.849 18.22C192.387 18.22 190.087 21.164 190.087 26.5Z" fill="#101214"/>
<path d="M176.94 8.92797C176.94 7.17997 178.09 6.16797 179.7 6.16797C181.31 6.16797 182.46 7.17997 182.46 8.92797C182.46 10.676 181.31 11.688 179.7 11.688C178.09 11.688 176.94 10.676 176.94 8.92797ZM177.676 38V15H181.632V38H177.676Z" fill="#101214"/>
<path d="M173.869 37.954C173.547 38.046 172.857 38.138 171.845 38.138C168.073 38.138 165.681 36.344 165.681 32.112V5.38599H169.637V31.652C169.637 33.722 171.017 34.458 172.719 34.458C173.133 34.458 173.409 34.458 173.869 34.412V37.954Z" fill="#101214"/>
<path d="M148.244 31.9741C145.944 31.9741 143.598 31.6981 141.022 31.1921L138.492 38.0001H133.846L145.76 7.77808H151.004L162.918 38.0001H158.272L155.742 31.1461C153.028 31.6981 150.682 31.9741 148.244 31.9741ZM148.244 28.2941C150.176 28.2941 152.154 28.0641 154.5 27.6961L148.382 11.1361L142.264 27.7421C144.518 28.1101 146.404 28.2941 148.244 28.2941Z" fill="#101214"/>
<path d="M106.535 26.5C106.535 32.02 108.743 34.78 112.837 34.78C116.379 34.78 119.553 32.526 119.553 27.42V25.58C119.553 20.474 116.655 18.22 113.297 18.22C108.835 18.22 106.535 21.164 106.535 26.5ZM119.553 38V33.86C118.081 36.896 115.321 38.46 111.779 38.46C105.661 38.46 102.579 33.262 102.579 26.5C102.579 20.014 105.799 14.54 112.239 14.54C115.597 14.54 118.173 16.058 119.553 19.048V15H123.509V38H119.553Z" fill="#101214"/>
<path d="M92.8638 24.4301V38.0001H88.9998V15.0001H92.8638V19.0481C94.1978 16.3341 96.4978 14.4021 101.006 14.6781V18.5421C95.9458 18.0361 92.8638 19.5541 92.8638 24.4301Z" fill="#101214"/>
<path d="M78.3361 8.92797C78.3361 7.17997 79.4861 6.16797 81.0961 6.16797C82.7061 6.16797 83.8561 7.17997 83.8561 8.92797C83.8561 10.676 82.7061 11.688 81.0961 11.688C79.4861 11.688 78.3361 10.676 78.3361 8.92797ZM79.0721 38V15H83.0281V38H79.0721Z" fill="#101214"/>
<path d="M69.43 29.0761V7.77808H73.57V28.8001C73.57 34.3661 71.132 38.1841 65.428 38.1841C63.266 38.1841 61.61 37.8161 60.46 37.4021V33.4001C61.702 33.9061 63.22 34.1821 64.738 34.1821C68.234 34.1821 69.43 32.0661 69.43 29.0761Z" fill="#101214"/>
<path d="M0 12C0 5.37258 5.37258 0 12 0H36C42.6274 0 48 5.37258 48 12V36C48 42.6274 42.6274 48 36 48H12C5.37258 48 0 42.6274 0 36V12Z" fill="#FB9700"/>
<path d="M35.6022 35.6025C35.6022 31.2099 32.0083 27.6604 27.6602 27.6604H20.3393V20.9607H12.3972V34.1383C12.3972 35.1588 12.8409 35.6025 13.8614 35.6025H35.6022ZM12.3972 12.3975C12.3972 16.79 15.9024 20.3395 20.2949 20.3395H27.6602V27.0392H35.6022V13.8616C35.6022 12.8855 35.1142 12.3975 34.138 12.3975H12.3972Z" fill="#101214"/>
</svg>
