<svg width="175" height="48" viewBox="0 0 175 48" fill="none" xmlns="http://www.w3.org/2000/svg">
<path d="M174.049 31.744C174.049 35.562 171.565 38.46 165.401 38.46C161.951 38.46 159.145 37.678 157.397 36.758V32.572C159.375 33.722 162.688 34.826 165.586 34.826C168.622 34.826 170.186 33.584 170.186 31.79C170.186 30.042 168.851 29.03 164.481 27.972C159.375 26.73 157.214 24.752 157.214 20.98C157.214 16.978 160.295 14.54 165.539 14.54C168.529 14.54 171.243 15.276 172.945 16.196V20.29C170.185 18.91 167.931 18.174 165.493 18.174C162.595 18.174 161.032 19.186 161.032 20.98C161.032 22.59 162.135 23.602 166.368 24.614C171.473 25.856 174.049 27.742 174.049 31.744Z" fill="#101214"/>
<path d="M132.653 28.478V15H136.609V28.892C136.609 33.032 138.265 34.872 142.037 34.872C145.717 34.872 148.247 32.434 148.247 27.788V15H152.203V38H148.247V34.228C146.775 36.942 144.061 38.46 140.979 38.46C135.689 38.46 132.653 34.826 132.653 28.478Z" fill="#101214"/>
<path d="M128.597 33.86V37.402C127.217 38.138 125.101 38.46 122.985 38.46C114.797 38.46 110.979 33.492 110.979 26.454C110.979 19.508 114.797 14.54 122.985 14.54C125.055 14.54 126.665 14.816 128.459 15.644V19.324C126.987 18.634 125.423 18.22 123.261 18.22C117.281 18.22 114.843 21.992 114.843 26.454C114.843 30.916 117.327 34.688 123.353 34.688C125.699 34.688 127.171 34.366 128.597 33.86Z" fill="#101214"/>
<path d="M96.9056 38.46C90.0056 38.46 85.9576 33.354 85.9576 26.454C85.9576 19.554 90.0056 14.54 96.9056 14.54C103.76 14.54 107.762 19.554 107.762 26.454C107.762 33.354 103.76 38.46 96.9056 38.46ZM96.9056 18.22C91.9836 18.22 89.8216 22.084 89.8216 26.454C89.8216 30.824 91.9836 34.78 96.9056 34.78C101.782 34.78 103.898 30.824 103.898 26.454C103.898 22.084 101.782 18.22 96.9056 18.22Z" fill="#101214"/>
<path d="M81.942 26.7298H68.234V37.9998H64.094V7.77783H83.506V11.7338H68.234V22.7738H81.942V26.7298Z" fill="#101214"/>
<path d="M0 12C0 5.37258 5.37258 0 12 0H36C42.6274 0 48 5.37258 48 12V36C48 42.6274 42.6274 48 36 48H12C5.37258 48 0 42.6274 0 36V12Z" fill="#FB9700"/>
<path d="M41.41 24.4082C38.1463 21.1445 32.8417 21.1792 29.6127 24.4082L26.8954 27.1255C25.3951 28.6258 22.9582 28.6258 21.4579 27.1255L19.2002 24.8678L13.3001 30.7679L15.5578 33.0256C20.316 37.7838 28.0344 37.7838 32.7926 33.0256L41.41 24.4082ZM6.9375 23.5957C10.2012 26.8594 15.4393 26.8912 18.7029 23.6275L21.455 20.8755C22.9553 19.3752 25.3922 19.3752 26.8925 20.8755L29.1502 23.1332L35.0503 17.2331L32.7926 14.9754C28.0344 10.2172 20.316 10.2172 15.5578 14.9754L6.94039 23.5928L6.9375 23.5957Z" fill="#101214"/>
</svg>
