<svg width="570" height="171" viewBox="0 0 570 171" fill="none" xmlns="http://www.w3.org/2000/svg">
<rect x="92.25" y="62.235" width="237" height="82.5" transform="rotate(-5 92.25 62.235)" fill="#1868DB"/>
<path d="M300.393 105.75L292.455 105.75L292.455 75.9719L300.393 75.9719L300.393 93.7379L305.391 83.9939L314.001 83.9939L307.785 94.6199L314.169 105.75L305.433 105.75L300.393 96.0059L300.393 105.75Z" fill="white"/>
<path d="M284.931 95.2079L284.931 105.75L276.951 105.75L276.951 83.9939L284.931 83.9939L284.931 88.1099C286.065 85.1699 287.829 83.5319 290.685 83.6999L290.685 91.8479C286.443 91.5539 284.931 92.3939 284.931 95.2079Z" fill="white"/>
<path d="M263.698 106.296C256.684 106.296 252.61 101.676 252.61 94.83C252.61 88.026 256.684 83.49 263.698 83.49C270.628 83.49 274.618 88.026 274.618 94.83C274.618 101.676 270.628 106.296 263.698 106.296ZM263.698 90.294C261.388 90.294 260.38 92.1 260.38 94.83C260.38 97.602 261.388 99.534 263.698 99.534C265.882 99.534 266.89 97.602 266.89 94.83C266.89 92.1 265.882 90.294 263.698 90.294Z" fill="white"/>
<path d="M247.707 105.75L237.291 105.75L235.443 98.274L234.225 91.008L232.965 98.274L231.075 105.75L221.205 105.75L216.207 83.994L223.977 83.994L226.791 100.626L230.781 83.994L238.551 83.994L242.583 100.71L245.355 83.994L252.705 83.994L247.707 105.75Z" fill="white"/>
<path d="M202.215 93.6539L202.215 105.75L194.277 105.75L194.277 92.7719C194.277 90.9659 193.647 90.1259 192.093 90.1259C190.497 90.1259 189.405 91.2179 189.405 93.6539L189.405 105.75L181.467 105.75L181.467 83.9939L189.405 83.9939L189.405 87.8999C190.581 85.0859 192.639 83.5319 195.705 83.5319C198.981 83.5319 200.871 85.1699 201.711 88.1939C202.929 85.2119 205.197 83.5319 208.599 83.5319C213.177 83.5319 215.025 86.7659 215.025 92.5199L215.025 105.75L207.087 105.75L207.087 93.0659C207.087 91.0919 206.457 90.1259 204.903 90.1259C203.307 90.1259 202.215 91.2179 202.215 93.6539Z" fill="white"/>
<path d="M164.569 94.8719C164.569 97.9379 165.577 99.4499 167.467 99.4499C169.021 99.4499 170.365 98.3159 170.365 95.7119L170.365 93.9899C170.365 91.3439 169.231 90.2099 167.635 90.2099C165.619 90.2099 164.569 91.8899 164.569 94.8719ZM170.365 105.75L170.365 101.886C169.105 104.784 166.837 106.17 164.107 106.17C159.067 106.17 156.757 101.424 156.757 94.8719C156.757 88.6979 159.067 83.5739 164.443 83.5739C167.299 83.5739 169.273 85.2539 170.365 87.7319L170.365 83.9939L178.303 83.9939L178.303 105.75L170.365 105.75Z" fill="white"/>
<path d="M144.953 89.034C142.979 89.034 141.971 90.462 141.719 93.276L148.061 93.276C147.851 90.336 146.843 89.034 144.953 89.034ZM154.361 104.868C152.303 105.624 149.489 106.17 146.675 106.17C137.981 106.17 134.075 102.348 134.075 95.208C134.075 88.362 137.855 83.49 145.079 83.49C152.219 83.49 155.159 88.32 155.159 95.208L155.159 96.846L141.887 96.846C142.391 98.988 143.861 99.66 146.843 99.66C149.363 99.66 152.135 99.282 154.361 98.652L154.361 104.868Z" fill="white"/>
<path d="M114.174 78.1559L134.838 78.1559L134.838 85.2539L128.832 85.2539L128.832 105.75L120.18 105.75L120.18 85.2539L114.174 85.2539L114.174 78.1559Z" fill="white"/>
<path d="M523.156 92.8901V105.491H519.457V92.503C519.457 88.6326 517.909 86.9124 514.383 86.9124C510.942 86.9124 508.577 89.1916 508.577 93.5351V105.491H504.878V83.988H508.577V87.5144C509.953 84.9771 512.49 83.558 515.372 83.558C520.317 83.558 523.156 86.9554 523.156 92.8901Z" fill="#101214"/>
<path d="M490.431 105.921C483.98 105.921 480.196 101.147 480.196 94.6963C480.196 88.2455 483.98 83.558 490.431 83.558C496.839 83.558 500.58 88.2455 500.58 94.6963C500.58 101.147 496.839 105.921 490.431 105.921ZM490.431 86.9984C485.83 86.9984 483.808 90.6108 483.808 94.6963C483.808 98.7818 485.83 102.48 490.431 102.48C494.99 102.48 496.968 98.7818 496.968 94.6963C496.968 90.6108 494.99 86.9984 490.431 86.9984Z" fill="#101214"/>
<path d="M471.517 78.3114C471.517 76.6772 472.592 75.7311 474.097 75.7311C475.602 75.7311 476.677 76.6772 476.677 78.3114C476.677 79.9456 475.602 80.8917 474.097 80.8917C472.592 80.8917 471.517 79.9456 471.517 78.3114ZM472.205 105.491V83.988H475.903V105.491H472.205Z" fill="#101214"/>
<path d="M461.741 98.8248C461.741 100.717 462.859 102.007 465.139 102.007C465.999 102.007 466.816 101.835 467.461 101.706V105.276C466.816 105.448 466.085 105.62 464.967 105.62C460.365 105.62 458.129 102.91 458.129 98.9108V87.4284H454.646V83.988H458.129V79.4295H461.741V83.988H467.461V87.4284H461.741V98.8248Z" fill="#101214"/>
<path d="M452.402 101.62V104.931C451.112 105.62 449.134 105.921 447.155 105.921C439.5 105.921 435.931 101.276 435.931 94.6963C435.931 88.2025 439.5 83.558 447.155 83.558C449.091 83.558 450.596 83.816 452.273 84.5901V88.0305C450.897 87.3854 449.435 86.9984 447.413 86.9984C441.823 86.9984 439.543 90.5248 439.543 94.6963C439.543 98.8678 441.866 102.394 447.499 102.394C449.693 102.394 451.069 102.093 452.402 101.62Z" fill="#101214"/>
<path d="M423.356 86.9124C419.442 86.9124 417.464 89.4497 417.077 93.1911H429.075C428.86 89.1916 427.054 86.9124 423.356 86.9124ZM431.613 104.63C429.849 105.577 427.14 105.921 424.947 105.921C416.905 105.921 413.379 101.276 413.379 94.6963C413.379 88.2025 416.991 83.558 423.528 83.558C430.15 83.558 432.817 88.1595 432.817 94.6963V96.3735H417.12C417.636 100.029 420.001 102.394 425.076 102.394C427.57 102.394 429.677 101.921 431.613 101.233V104.63Z" fill="#101214"/>
<path d="M411.32 105.448C411.019 105.534 410.374 105.62 409.428 105.62C405.902 105.62 403.665 103.942 403.665 99.9859V75H407.364V99.5559C407.364 101.491 408.654 102.179 410.245 102.179C410.632 102.179 410.89 102.179 411.32 102.136V105.448Z" fill="#101214"/>
<path d="M400.107 105.448C399.806 105.534 399.161 105.62 398.215 105.62C394.689 105.62 392.452 103.942 392.452 99.9859V75H396.151V99.5559C396.151 101.491 397.441 102.179 399.032 102.179C399.419 102.179 399.677 102.179 400.107 102.136V105.448Z" fill="#101214"/>
<path d="M378.005 105.921C371.554 105.921 367.77 101.147 367.77 94.6963C367.77 88.2455 371.554 83.558 378.005 83.558C384.413 83.558 388.154 88.2455 388.154 94.6963C388.154 101.147 384.413 105.921 378.005 105.921ZM378.005 86.9984C373.403 86.9984 371.382 90.6108 371.382 94.6963C371.382 98.7818 373.403 102.48 378.005 102.48C382.563 102.48 384.542 98.7818 384.542 94.6963C384.542 90.6108 382.563 86.9984 378.005 86.9984Z" fill="#101214"/>
<path d="M365.057 100.502V104.243C363.294 105.405 360.499 105.921 357.574 105.921C348.285 105.921 343.038 100.33 343.038 91.428C343.038 82.827 348.285 76.8063 357.488 76.8063C360.24 76.8063 362.993 77.3223 365.014 78.7845V82.5259C362.993 81.2358 360.757 80.5477 357.488 80.5477C350.865 80.5477 346.909 84.9342 346.909 91.428C346.909 97.9217 350.994 102.222 357.703 102.222C360.671 102.222 362.993 101.534 365.057 100.502Z" fill="#101214"/>
<path d="M91.5128 91.4796C92.6964 91.7153 93.2605 90.1321 92.1899 89.5636C90.6767 88.7636 89.0343 88.0455 86.8717 87.2704C84.3946 86.4716 83.6688 86.5902 82.0167 85.9722C79.2079 84.9797 74.6199 82.8716 73.5235 82.3612C73.363 82.2783 73.194 82.2148 73.0163 82.1707C71.7842 81.809 66.3961 80.1695 61.8587 78.4438C58.6256 77.3091 56.6375 76.6115 55.595 76.2412C53.1297 75.3896 51.2364 74.8967 49.3216 74.5566C48.2683 74.3672 47.7849 75.7425 48.7252 76.2647C50.4204 77.2035 52.2093 78.0099 54.6713 78.8949C55.6223 79.2361 57.4855 80.3193 60.2878 81.3787C60.7423 81.5574 61.2086 81.6833 61.6836 81.7898C65.7976 82.6659 70.8336 84.6016 70.8336 84.6016C70.8336 84.6016 78.4393 87.2844 81.6444 88.4299C84.0622 89.2836 85.2297 89.6861 85.9394 89.9434C88.1106 90.6992 89.8316 91.162 91.5181 91.4935L91.5128 91.4796Z" fill="black"/>
<path d="M81.3627 62.1335C82.025 62.3929 82.9984 61.0379 82.546 60.4887C81.8933 59.7113 81.1393 59.0049 80.0828 58.2221C78.8205 57.406 78.3154 57.4717 77.513 56.8483C76.114 55.8437 74.0492 53.7773 73.5516 53.2777C73.4773 53.2099 73.403 53.142 73.3007 53.085C72.6706 52.7006 69.9016 51.0177 67.7098 49.2895C66.1093 48.1374 65.1131 47.4278 64.6025 47.0617C63.3855 46.196 62.3645 45.6727 61.2832 45.2851C60.6898 45.0795 59.8413 46.2578 60.2247 46.7532C60.9259 47.6566 61.7456 48.4502 62.954 49.3353C63.4257 49.6841 64.1754 50.7136 65.5347 51.7817C65.7609 51.9519 65.9956 52.1026 66.2617 52.2092C68.5276 53.1695 70.9478 55.1152 70.9478 55.1152C70.9478 55.1152 74.7088 57.8308 76.2953 58.9883C77.4929 59.8454 78.0724 60.2654 78.4257 60.5152C79.5048 61.2732 80.4203 61.7728 81.3487 62.1388L81.3627 62.1335Z" fill="black"/>
<path d="M95.7694 72.7583C95.9406 72.6603 97.3653 71.7264 97.0906 71.2214C96.9021 70.7314 96.6532 70.3771 96.2343 70.0401C95.6979 69.7321 95.3695 69.9228 95.0722 69.6514C94.5261 69.2347 93.8605 68.173 93.7107 67.9091C93.6946 67.8671 93.6558 67.8499 93.617 67.8327C93.3456 67.7121 92.1469 67.1447 91.3241 66.3845C90.6811 65.9247 90.2976 65.6383 90.0769 65.4822C89.5911 65.1387 89.1248 65.0127 88.5734 64.9999C88.2697 65.0042 87.4158 66.1685 87.5096 66.4539C87.6755 66.9686 87.9458 67.3789 88.423 67.7418C88.605 67.8807 88.7612 68.4956 89.276 68.9564C89.3557 69.0383 89.4667 69.076 89.5862 69.0943C90.6793 69.2202 91.5873 70.0762 91.5873 70.0762C91.5873 70.0762 93.0714 71.1766 93.6918 71.6611C94.1636 72.01 94.3898 72.1802 94.5276 72.2878C94.9498 72.5915 95.3601 72.7389 95.7747 72.7723L95.7694 72.7583Z" fill="black"/>
<path d="M96.7507 116.37C97.6478 116.153 97.5668 114.481 96.6493 114.352C95.3591 114.173 93.9978 114.102 92.2586 114.177C90.2867 114.357 89.8194 114.729 88.4818 114.762C86.2267 114.874 82.3971 114.612 81.4817 114.53C81.3481 114.517 81.206 114.524 81.0692 114.544C80.1011 114.66 75.858 115.119 72.191 115.196C69.6096 115.337 67.9986 115.411 67.165 115.458C65.1856 115.577 63.7199 115.819 62.2801 116.213C61.4972 116.433 61.5728 117.883 62.3762 118.008C63.8355 118.25 65.3357 118.348 67.3118 118.263C68.084 118.223 69.7037 118.548 71.9664 118.497C72.3314 118.485 72.6998 118.44 73.0713 118.361C76.1922 117.658 80.2877 117.609 80.2877 117.609C80.2877 117.609 86.3896 117.303 88.9624 117.181C90.8998 117.078 91.8281 117.026 92.4108 116.995C94.1392 116.892 95.4929 116.693 96.7701 116.378L96.7507 116.37Z" fill="black"/>
<path d="M64.0382 102.068C64.5163 101.932 64.6303 100.265 64.193 100.048C63.5619 99.7442 62.8845 99.5709 62.0025 99.4924C61.0052 99.4904 60.7306 99.821 60.0522 99.7285C58.9084 99.6382 57.0194 99.031 56.5617 98.8857C56.4895 98.8653 56.4228 98.8588 56.356 98.8523C55.8682 98.8793 53.6831 98.9647 51.8479 98.7065C50.5427 98.614 49.7328 98.5559 49.3041 98.528C48.2994 98.4646 47.5401 98.58 46.7874 98.8374C46.376 98.9796 46.2621 100.438 46.6465 100.643C47.352 101.015 48.0983 101.242 49.0945 101.325C49.4758 101.355 50.2609 101.808 51.3982 101.965C51.5845 101.99 51.774 101.981 51.9614 101.925C53.5994 101.504 55.6596 101.804 55.6596 101.804C55.6596 101.804 58.7429 102.048 60.0481 102.141C61.0249 102.215 61.5009 102.241 61.796 102.256C62.6673 102.306 63.3759 102.227 64.0414 102.035L64.0382 102.068Z" fill="black"/>
<path d="M80.4376 103.295C80.696 103.132 80.8294 101.473 80.5924 101.275C80.2618 101 79.9128 100.845 79.4454 100.8C78.9156 100.843 78.7551 101.178 78.3911 101.109C77.7816 101.071 76.7972 100.517 76.5538 100.386C76.515 100.369 76.4816 100.365 76.4482 100.362C76.1747 100.403 75.0192 100.575 74.0413 100.372C73.3456 100.318 72.9169 100.29 72.6886 100.282C72.1512 100.264 71.7485 100.386 71.3296 100.676C71.0991 100.829 70.9992 102.282 71.1888 102.482C71.5603 102.821 71.9448 103.027 72.465 103.084C72.6653 103.103 73.0692 103.527 73.6777 103.646C73.7832 103.67 73.8726 103.651 73.9792 103.594C74.8687 103.108 75.9575 103.348 75.9575 103.348C75.9575 103.348 77.5966 103.472 78.2924 103.526C78.8211 103.564 79.0688 103.581 79.2164 103.588C79.6924 103.614 80.0531 103.507 80.4182 103.287L80.4376 103.295Z" fill="black"/>
<path d="M92.08 39.7356C92.6153 40.1243 93.9107 39.0634 93.6457 38.4582C93.2698 37.6064 92.7764 36.7837 92.0063 35.8264C91.0671 34.8056 90.5803 34.7518 90.0191 34.0034C89.0185 32.7812 87.6903 30.4153 87.3747 29.8457C87.3424 29.7617 87.2627 29.6799 87.2077 29.6206C86.7295 29.1296 84.6465 26.9739 83.1083 24.8977C81.9569 23.4925 81.2385 22.6277 80.8658 22.1604C79.9718 21.09 79.1899 20.3945 78.3035 19.8034C77.8091 19.4793 76.6827 20.3948 76.9122 20.9494C77.3086 21.938 77.8343 22.8447 78.7057 23.9398C79.0428 24.3565 79.4457 25.4872 80.4011 26.759C80.5627 26.97 80.7415 27.1424 80.9483 27.3039C82.7631 28.6789 84.4596 30.9995 84.4596 30.9995C84.4596 30.9995 87.1707 34.3279 88.3027 35.7246C89.1719 36.7723 89.5801 37.2902 89.8408 37.5917C90.6195 38.5296 91.3186 39.1769 92.0887 39.7163L92.08 39.7356Z" fill="black"/>
<path d="M107.807 59.0143C108.221 59.2566 109.517 58.1956 109.372 57.7369C109.172 57.0907 108.845 56.4931 108.317 55.8287C107.649 55.1374 107.228 55.1708 106.842 54.6281C106.143 53.772 105.328 52.0285 105.138 51.6193C105.111 51.5493 105.076 51.4987 105.026 51.4535C104.674 51.1229 103.164 49.6628 102.119 48.2005C101.31 47.2259 100.817 46.6122 100.551 46.2967C99.9281 45.5558 99.3379 45.1078 98.6378 44.7503C98.2587 44.5587 97.1324 45.4743 97.2466 45.8964C97.4567 46.6513 97.7766 47.3157 98.3766 48.0814C98.6178 48.3743 98.8043 49.2347 99.4387 50.1318C99.5454 50.2836 99.6886 50.4053 99.8405 50.5076C101.242 51.3506 102.395 53.0122 102.395 53.0122C102.395 53.0122 104.287 55.3381 105.082 56.3181C105.685 57.0503 105.981 57.4023 106.162 57.622C106.705 58.281 107.237 58.7032 107.817 59.0423L107.807 59.0143Z" fill="black"/>
<path d="M122.609 47.6125C123.241 48.5429 124.76 47.8136 124.445 46.7454C123.986 45.2183 123.403 43.659 122.489 41.7443C121.375 39.6013 120.807 39.2094 120.135 37.7158C118.954 35.2293 117.371 30.8237 116.981 29.7683C116.922 29.6144 116.863 29.4604 116.775 29.3172C116.21 28.2651 113.736 23.6722 111.915 19.5672C110.54 16.7049 109.7 14.9388 109.264 14.0138C108.215 11.8299 107.28 10.277 106.235 8.8147C105.652 8.0103 104.351 8.63943 104.604 9.58711C105.082 11.3317 105.706 13.0363 106.741 15.2256C107.145 16.0667 107.623 18.0202 108.754 20.5423C108.944 20.9515 109.162 21.3498 109.402 21.7235C111.548 24.9637 113.572 29.5535 113.572 29.5535C113.572 29.5535 116.781 36.3065 118.13 39.1462C119.163 41.2881 119.657 42.3198 119.947 42.9476C120.874 44.8569 121.705 46.3052 122.609 47.6125Z" fill="black"/>
<path d="M133.427 30.0305C133.684 30.4462 135.326 30.1197 135.419 29.6501C135.545 28.9749 135.537 28.2867 135.384 27.4295C135.118 26.4872 134.725 26.3009 134.647 25.6397C134.43 24.5337 134.531 22.5822 134.557 22.1062C134.564 22.0395 134.551 21.9641 134.529 21.9081C134.379 21.4353 133.727 19.4043 133.492 17.5822C133.244 16.3114 133.09 15.535 133.009 15.1161C132.813 14.1469 132.501 13.4631 132.053 12.7997C131.804 12.4455 130.383 12.7192 130.288 13.1413C130.119 13.9135 130.087 14.6652 130.255 15.6452C130.32 16.0221 130.088 16.8826 130.23 18.0016C130.252 18.1857 130.317 18.3537 130.415 18.5249C131.245 19.9733 131.48 22.0043 131.48 22.0043C131.48 22.0043 132.054 24.9982 132.296 26.255C132.487 27.2102 132.579 27.6571 132.625 27.9446C132.806 28.7911 133.054 29.435 133.422 30.0165L133.427 30.0305Z" fill="black"/>
<path d="M137.324 50.3077C137.555 50.5726 139.203 50.2601 139.316 49.9273C139.475 49.4642 139.52 48.9968 139.427 48.4217C139.232 47.7896 138.858 47.6927 138.813 47.2437C138.675 46.5092 138.885 45.1748 138.937 44.8496C138.949 44.7968 138.933 44.7549 138.916 44.7129C138.798 44.4049 138.281 43.0609 138.163 41.8364C137.996 40.9846 137.892 40.4623 137.837 40.1942C137.703 39.5545 137.445 39.0914 137.032 38.6876C136.812 38.4507 135.377 38.7298 135.267 39.0292C135.04 39.5666 134.963 40.0782 135.089 40.7373C135.138 40.9914 134.838 41.5891 134.92 42.3451C134.935 42.4679 134.978 42.5799 135.054 42.6951C135.78 43.6212 135.89 44.9932 135.89 44.9932C135.89 44.9932 136.276 46.9984 136.424 47.8416C136.557 48.4813 136.609 48.7829 136.651 48.9756C136.772 49.5399 136.981 49.9578 137.321 50.3411L137.324 50.3077Z" fill="black"/>
</svg>
